<?xml version="1.0" encoding="UTF-8" standalone="no"?>
<!-- Created with Inkscape (http://www.inkscape.org/) -->

<svg
   xmlns:dc="http://purl.org/dc/elements/1.1/"
   xmlns:cc="http://creativecommons.org/ns#"
   xmlns:rdf="http://www.w3.org/1999/02/22-rdf-syntax-ns#"
   xmlns:svg="http://www.w3.org/2000/svg"
   xmlns="http://www.w3.org/2000/svg"
   xmlns:sodipodi="http://sodipodi.sourceforge.net/DTD/sodipodi-0.dtd"
   xmlns:inkscape="http://www.inkscape.org/namespaces/inkscape"
   width="209mm"
   height="227mm"
   viewBox="0 0 740.55118 804.33064"
   id="svg2"
   version="1.1"
   inkscape:version="0.91 r13725"
   sodipodi:docname="valodata_logo_grey.svg">
  <defs
     id="defs4" />
  <sodipodi:namedview
     id="base"
     pagecolor="#ffffff"
     bordercolor="#666666"
     borderopacity="1.0"
     inkscape:pageopacity="0.0"
     inkscape:pageshadow="2"
     inkscape:zoom="0.98994949"
     inkscape:cx="724.84854"
     inkscape:cy="227.15449"
     inkscape:document-units="px"
     inkscape:current-layer="g3413"
     showgrid="false"
     inkscape:window-width="3726"
     inkscape:window-height="2118"
     inkscape:window-x="114"
     inkscape:window-y="42"
     inkscape:window-maximized="1"
     inkscape:showpageshadow="false"
     showborder="false" />
  <metadata
     id="metadata7">
    <rdf:RDF>
      <cc:Work
         rdf:about="">
        <dc:format>image/svg+xml</dc:format>
        <dc:type
           rdf:resource="http://purl.org/dc/dcmitype/StillImage" />
        <dc:title></dc:title>
      </cc:Work>
    </rdf:RDF>
  </metadata>
  <g
     inkscape:label="Layer 1"
     inkscape:groupmode="layer"
     id="layer1"
     transform="translate(0,-248.03162)">
    <g
       id="g3413"
       transform="translate(-2159.2011,-623.7692)">
      <g
         transform="translate(2159.2011,623.7692)"
         style="font-style:normal;font-weight:normal;font-size:40px;line-height:125%;font-family:sans-serif;letter-spacing:0px;word-spacing:0px;fill:#000000;fill-opacity:1;stroke:none;stroke-width:1px;stroke-linecap:butt;stroke-linejoin:miter;stroke-opacity:1"
         id="flowRoot3431" />
      <g
         style="font-style:normal;font-weight:normal;font-size:158.51525879px;line-height:125%;font-family:sans-serif;letter-spacing:0px;word-spacing:0px;fill:#1d5c9b;fill-opacity:1;stroke:none;stroke-width:1px;stroke-linecap:butt;stroke-linejoin:miter;stroke-opacity:1"
         id="text3439" />
      <path
         id="path3523"
         transform="translate(2159.2011,871.80079)"
         style="fill:#ececec;fill-opacity:1;stroke:#ececec;stroke-width:0.71428573"
         d="m 292.53293,355.81632 c 0,-0.32773 -0.88412,-0.50315 -1.96472,-0.3898 -1.08059,0.11334 -2.3663,-0.0421 -2.85714,-0.34546 -0.49083,-0.30336 -1.21386,-0.3529 -1.60671,-0.1101 -0.39286,0.2428 -0.71429,0.0666 -0.71429,-0.39141 0,-0.45807 -0.46138,-0.65581 -1.02528,-0.43943 -0.5639,0.21639 -1.1264,0.15424 -1.25,-0.1381 -0.1236,-0.29235 -2.37105,-1.72341 -4.99434,-3.18015 -4.68146,-2.59964 -14.94491,-10.47085 -13.71406,-10.51753 0.3446,-0.0131 -0.13228,-0.65593 -1.05973,-1.42858 -0.92746,-0.77264 -1.4096,-1.41502 -1.07143,-1.42752 0.33816,-0.0125 0.0309,-0.46537 -0.68272,-1.00638 -0.71366,-0.54102 -1.26358,-1.25401 -1.22205,-1.58442 0.12685,-1.00909 -2.30158,-5.95791 -2.9236,-5.95791 -0.32086,0 -0.39837,-0.48214 -0.17224,-1.07143 0.22614,-0.58929 0.13569,-1.07216 -0.20098,-1.07306 -0.33668,-7.1e-4 -0.64458,-0.92993 -0.68423,-2.06453 -0.0396,-1.1346 -0.30343,-2.66065 -0.58617,-3.39123 -0.74902,-1.93539 -0.88115,-15.25729 -0.15133,-15.25708 0.34044,1e-4 0.46752,-0.79217 0.28239,-1.76061 -0.18513,-0.96844 -0.0714,-1.85237 0.25282,-1.96428 0.32419,-0.11192 0.67926,-1.00707 0.78904,-1.98921 0.1098,-0.98214 0.36034,-1.94643 0.55677,-2.14286 0.19643,-0.19643 1.16071,-1.96261 2.14286,-3.92485 2.36665,-4.72838 13.50994,-15.8436 18.57142,-18.52465 2.16072,-1.14452 4.16473,-2.42767 4.45335,-2.85143 0.28863,-0.42377 0.5297,-0.52202 0.53572,-0.21832 0.006,0.3037 0.81451,0.0256 1.79665,-0.61786 l 1.78571,-1.17004 0,-38.42035 0,-38.42034 -3.75,-0.46975 c -13.4243,-1.68162 -116.12431,-0.68355 -118.03571,1.14711 -0.97807,0.93675 -1.33316,11.30869 -0.72202,21.0897 l 0.5058,8.09507 12.04457,0 c 11.40736,0 12.12031,-0.0813 13.47626,-1.53674 0.78744,-0.84522 1.28395,-1.77582 1.10336,-2.06802 -0.18059,-0.29219 0.15196,-0.71557 0.73899,-0.94083 0.58702,-0.22527 1.06732,-0.6988 1.06732,-1.0523 0,-0.35349 1.44643,-2.08914 3.21429,-3.857 1.76786,-1.76785 3.21429,-3.11931 3.21429,-3.00324 0,0.23155 7.77947,-4.29618 8.92857,-5.19651 0.39285,-0.3078 1.35714,-0.60043 2.14285,-0.65028 0.78572,-0.0498 3.7274,-0.47149 6.53706,-0.93699 5.74202,-0.95133 11.24009,-0.27477 17.84284,2.19563 2.09038,0.78212 4.04935,1.45024 4.35326,1.4847 0.30391,0.0345 0.94412,0.57671 1.4227,1.20499 0.47857,0.62826 0.88036,0.8999 0.89286,0.60362 0.0703,-1.66646 9.6194,10.25436 11.88289,14.83422 2.49222,5.04268 2.61594,5.62975 2.48094,11.77227 -0.16518,7.5149 -1.51767,13.35811 -4.11987,17.79932 -2.62578,4.48145 -13.14963,14.7521 -14.12074,13.781 -0.21242,-0.21242 -0.38622,-0.0112 -0.38622,0.44711 0,0.45833 -0.24107,0.77211 -0.53572,0.69726 -1.0132,-0.25735 -5.17857,0.96441 -5.17857,1.51895 0,0.30529 -4.5,0.5401 -10,0.52182 -5.5628,-0.0185 -10,-0.3239 -10,-0.68826 0,-0.36024 -0.46138,-0.47794 -1.02528,-0.26156 -0.5639,0.2164 -1.13116,0.0758 -1.26057,-0.31245 -0.12942,-0.38825 -0.95376,-0.76002 -1.83187,-0.82617 -0.87811,-0.0661 -1.59656,-0.37329 -1.59656,-0.68254 0,-0.30926 -0.24107,-0.4962 -0.53572,-0.41543 -0.96579,0.26476 -4.99578,-2.21166 -5.42673,-3.33472 -0.23171,-0.60382 -0.8637,-1.09785 -1.40443,-1.09785 -1.15017,0 -3.53489,-2.43157 -2.95421,-3.01225 0.21797,-0.21797 -0.46753,-1.07582 -1.52334,-1.90632 -1.05581,-0.8305 -1.63524,-1.52022 -1.28762,-1.53272 0.34763,-0.0125 0.008,-0.49464 -0.75447,-1.07143 -0.76259,-0.57679 -1.1462,-1.04871 -0.85248,-1.04871 0.29373,0 -0.0356,-0.96429 -0.73177,-2.14286 -0.6962,-1.17857 -1.4865,-2.14285 -1.75622,-2.14285 -0.26972,0 -0.84194,-1.00843 -1.2716,-2.24094 l -0.78119,-2.24093 -22.03849,0.51447 -22.03848,0.51445 -0.52209,-27.0216 c -0.28714,-14.86189 -0.58218,-27.08171 -0.65563,-27.15515 -0.0734,-0.0735 -5.30357,-0.36075 -11.62249,-0.63845 -13.54921,-0.59544 -19.91306,0.24838 -22.48,2.98075 -0.88664,0.94378 -1.31496,1.72089 -0.95184,1.7269 0.36313,0.006 0.33789,0.24709 -0.0561,0.53572 -0.39398,0.28863 -1.97078,2.45335 -3.50402,4.81049 -3.62417,5.57169 -10.617346,12.3208 -15.48756,14.94704 -2.124954,1.14587 -4.024267,2.26942 -4.220695,2.49675 -0.196429,0.22735 -0.839286,0.46716 -1.428572,0.53293 -2.158116,0.24086 -8.571412,2.01492 -8.570856,2.37089 3.15e-4,0.20167 -4.097899,0.10847 -9.107143,-0.20712 -12.372853,-0.7795 -12.322001,-0.77345 -12.322001,-1.46691 0,-0.33667 -0.461376,-0.43509 -1.02528,-0.2187 -0.563904,0.21639 -1.126404,0.14473 -1.25,-0.15925 -0.123596,-0.30399 -2.186245,-1.59116 -4.583666,-2.86039 -5.58791,-2.95833 -18.799072,-15.61056 -17.57663,-16.833 0.213377,-0.21337 -0.04061,-0.38795 -0.564424,-0.38795 -0.523809,0 -0.753401,-0.19898 -0.510204,-0.44218 0.243197,-0.2432 -0.02761,-0.91197 -0.601803,-1.48616 -0.574189,-0.57419 -0.861342,-1.33949 -0.638117,-1.70068 0.223224,-0.36118 0.0465,-0.6567 -0.392733,-0.6567 -0.439228,0 -0.613668,-0.29922 -0.387646,-0.66493 0.226022,-0.36571 0.09832,-0.85815 -0.283793,-1.0943 -0.382107,-0.23616 -0.513675,-0.90123 -0.292373,-1.47793 0.221302,-0.5767 0.02758,-1.04855 -0.430494,-1.04855 -0.458074,0 -0.673418,-0.25799 -0.478543,-0.5733 0.194875,-0.31532 0.418499,-6.01869 0.496943,-12.67416 0.104053,-8.82827 0.406654,-12.50382 1.118913,-13.59086 0.536959,-0.8195 0.760876,-1.70542 0.497594,-1.9687 -0.263283,-0.26328 -0.08473,-0.4787 0.396792,-0.4787 0.481519,0 0.676835,-0.32143 0.434036,-0.71428 -0.242799,-0.39286 -0.04748,-0.71429 0.434035,-0.71429 0.481519,0 0.699304,-0.17618 0.483968,-0.39152 -0.215337,-0.21534 0.204071,-1.09926 0.932017,-1.96429 0.727947,-0.86502 2.63755,-3.27501 4.243564,-5.35554 1.606013,-2.08053 4.909819,-5.19818 7.341791,-6.92811 2.431973,-1.72993 4.91902,-3.5634 5.526774,-4.07437 0.607753,-0.51096 1.572039,-0.99448 2.142857,-1.07448 0.570818,-0.08 2.805708,-0.79272 4.966422,-1.58382 2.160715,-0.79111 4.651786,-1.44887 5.535715,-1.46169 0.883928,-0.0128 1.607142,-0.26439 1.607142,-0.55904 0,-0.29464 2.892858,-0.53571 6.428572,-0.53571 3.535714,0 6.428571,0.24107 6.428571,0.53571 0,0.29465 0.753252,0.53572 1.673893,0.53572 2.170049,0 8.445581,2.16971 13.105742,4.53119 5.237815,2.6542 11.583444,8.16062 14.820182,12.86022 1.52927,2.22044 3.06746,4.03716 3.4182,4.03716 0.35075,0 0.43907,0.32143 0.19627,0.71429 -0.2428,0.39285 -0.0821,0.71428 0.35714,0.71428 0.43923,0 0.59994,0.32143 0.35714,0.71429 -0.2428,0.39285 -0.10105,0.71428 0.31499,0.71428 0.41604,0 0.67609,0.25847 0.57787,0.57437 -0.0982,0.3159 0.42932,1.71089 1.17229,3.09997 l 1.35088,2.5256 30.0777,0.60104 c 16.54274,0.33058 53.88425,0.64769 82.98114,0.7047 29.09688,0.057 53.20902,0.29251 53.58252,0.52335 0.3735,0.23083 7.74553,0.51048 16.38228,0.62143 l 15.70319,0.20174 -0.0383,25.03819 c -0.0336,21.97381 0.0143,23.11494 0.39118,9.3239 0.27597,-10.09773 0.41729,-1.9282 0.39542,22.85714 -0.0187,21.21429 0.2132,39.24587 0.5154,40.07017 0.46721,1.27445 3.8711,3.54173 4.72784,3.14916 0.1525,-0.0699 0.47393,0.16038 0.71428,0.51169 0.24035,0.35131 2.60329,1.83905 5.25097,3.30608 12.11251,6.71131 20.47365,18.46852 21.73827,30.56774 0.24289,2.32386 0.71621,4.39491 1.05184,4.60234 0.82175,0.50786 0.77647,3.41179 -0.0664,4.25711 -0.37213,0.37321 -0.77392,2.68554 -0.89286,5.1385 -0.11894,2.45297 -0.49172,4.4619 -0.8284,4.46429 -0.33667,0.002 -0.43508,0.46573 -0.2187,1.02963 0.21639,0.56391 0.13105,1.12641 -0.18964,1.25 -0.3207,0.1236 -1.47242,1.99258 -2.55937,4.15329 -4.33656,8.62047 -11.12587,15.4166 -19.63444,19.65416 -2.16071,1.07611 -4.02969,2.21895 -4.15329,2.53965 -0.12359,0.32069 -0.68609,0.40603 -1.25,0.18964 -0.5639,-0.21638 -1.02528,-0.0677 -1.02528,0.3304 0,0.39811 -0.64286,0.55573 -1.42857,0.35026 -0.83032,-0.21714 -1.42857,-0.0219 -1.42857,0.46617 0,0.46186 -0.2423,0.68999 -0.53845,0.50696 -0.29615,-0.18302 -3.99257,-0.11878 -8.21428,0.14276 -4.22172,0.26155 -7.67585,0.20739 -7.67585,-0.12035 z m 273.34928,223.66101 c -0.43858,-0.2715 -2.25769,-0.48232 -4.04247,-0.4685 -1.78478,0.0139 -5.17145,-0.65807 -7.52594,-1.4931 -2.35448,-0.83503 -4.6023,-1.60604 -4.99516,-1.71334 -0.39285,-0.1073 -1.71817,-0.72724 -2.94515,-1.37763 -1.22697,-0.6504 -2.43233,-0.98107 -2.67857,-0.73484 -0.24624,0.24624 -0.4477,0.0944 -0.4477,-0.3375 0,-0.76923 -2.69255,-2.01661 -3.75,-1.73727 -0.29465,0.0778 -0.53572,-0.23348 -0.53572,-0.69181 0,-0.45833 -0.1875,-0.64583 -0.41666,-0.41667 -0.22917,0.22917 -1.04447,-0.21113 -1.81177,-0.97843 -0.76731,-0.76731 -1.67113,-1.22451 -2.00849,-1.01601 -0.33736,0.2085 -0.80551,-0.12157 -1.04033,-0.73351 -0.23482,-0.61193 -0.71696,-0.93336 -1.07143,-0.71428 -0.35447,0.21907 -0.82879,-0.082 -1.05405,-0.66901 -0.22527,-0.58703 -0.72975,-1.06733 -1.12108,-1.06733 -1.69054,0 -13.50777,-11.81835 -14.5606,-14.56197 -0.2432,-0.63377 -0.79267,-1.15232 -1.22104,-1.15232 -0.42837,0 -0.5788,-0.3237 -0.33428,-0.71932 0.2445,-0.39564 -0.0561,-0.91146 -0.66803,-1.14628 -0.61194,-0.23482 -0.96485,-0.66602 -0.78427,-0.95821 0.18059,-0.2922 -0.24105,-1.14244 -0.93699,-1.88944 -0.69593,-0.747 -1.31036,-1.6796 -1.36541,-2.07246 -0.2058,-1.4688 -3.30029,-7.5 -3.8481,-7.5 -0.31338,0 -0.40066,-0.4407 -0.19397,-0.97933 0.20669,-0.53863 -0.0445,-1.42256 -0.55813,-1.96428 -0.51367,-0.54173 -1.02139,-1.76958 -1.12827,-2.72855 -0.10688,-0.95898 -0.64313,-2.64325 -1.19166,-3.74282 -0.54854,-1.09956 -1.20904,-2.96305 -1.46777,-4.14107 -0.25874,-1.17802 -0.73799,-2.30721 -1.065,-2.50931 -0.32701,-0.20211 -25.13264,-0.69154 -55.12362,-1.08763 -29.99098,-0.39609 -56.45762,-0.8544 -58.81476,-1.01846 -2.35715,-0.16407 -7.0673,-0.32119 -10.46701,-0.34914 l -6.18129,-0.0508 -0.29495,-61.96428 c -0.16222,-34.08036 -0.55295,-62.53718 -0.86827,-63.23737 -0.54447,-1.20901 -3.61028,-1.26293 -60.91315,-1.07143 l -60.33983,0.20165 -1.71853,2.14286 c -0.9452,1.17857 -1.56757,2.54464 -1.38304,3.03571 0.18454,0.49108 -0.0102,0.89286 -0.43277,0.89286 -0.42256,0 -0.59124,0.46138 -0.37486,1.02528 0.2164,0.56391 0.0995,1.12641 -0.25967,1.25 -0.35921,0.1236 -0.74294,1.02829 -0.85273,2.01044 -0.10979,0.98214 -0.61989,2.22894 -1.13355,2.77067 -0.51367,0.54173 -0.76483,1.42565 -0.55814,1.96428 0.20669,0.53863 0.0455,0.97933 -0.35821,0.97933 -0.40372,0 -0.53538,0.32143 -0.29258,0.71429 0.2428,0.39285 0.12272,0.71428 -0.26685,0.71428 -0.64328,0 -1.48902,1.69991 -1.51032,3.03572 -0.005,0.29464 -0.50383,1.09821 -1.10917,1.78571 -0.60535,0.6875 -2.95632,3.82143 -5.22439,6.96429 -10.3792,14.38244 -27.73615,25.50108 -44.21069,28.3208 -2.84822,0.48749 -5.17845,1.06473 -5.17829,1.28277 4.4e-4,0.61868 -16.34241,0.10478 -20.59361,-0.64757 -2.09418,-0.37061 -5.58409,-1.19028 -7.75534,-1.82148 -2.17126,-0.6312 -4.11217,-0.98321 -4.31314,-0.78224 -0.20098,0.20097 -0.85073,-0.11992 -1.4439,-0.71309 -0.59317,-0.59317 -1.49843,-0.91735 -2.01167,-0.7204 -0.51325,0.19696 -1.03431,0.0949 -1.15791,-0.22684 -0.12359,-0.3217 -2.314,-1.62726 -4.86757,-2.90123 -9.78873,-4.88356 -20.57884,-14.51837 -27.10834,-24.20584 -3.19136,-4.73485 -8.13717,-14.70788 -8.98634,-18.1206 -0.26882,-1.08035 -0.74525,-1.96428 -1.05874,-1.96428 -0.31349,0 -0.40187,-0.64286 -0.1964,-1.42857 0.20547,-0.78572 0.095,-1.43016 -0.24545,-1.4321 -0.34046,-0.002 -0.70535,-1.48873 -0.81087,-3.30398 -0.10551,-1.81525 -0.39898,-3.6356 -0.65214,-4.04522 -0.84744,-1.37119 -0.28141,-17.9538 0.80702,-23.6425 0.59167,-3.09241 0.90343,-5.90141 0.69279,-6.24224 -0.21064,-0.34082 -0.0774,-0.61968 0.29602,-0.61968 0.37345,0 0.89895,-0.88393 1.16777,-1.96428 0.84357,-3.3902 5.78479,-13.36974 8.97215,-18.1206 3.91095,-5.8294 14.70223,-16.58048 20.69396,-20.61688 2.55357,-1.72025 4.75066,-3.39309 4.88243,-3.71743 0.13177,-0.32434 0.53356,-0.40802 0.89286,-0.18596 0.3593,0.22206 0.65328,0.0444 0.65328,-0.39485 0,-0.43923 0.32143,-0.59994 0.71428,-0.35714 0.39286,0.2428 0.71429,0.0821 0.71429,-0.35714 0,-0.43923 0.29734,-0.61483 0.66076,-0.39023 0.7898,0.48813 4.33924,-1.02095 4.33924,-1.84487 0,-0.31747 0.48214,-0.3922 1.07143,-0.16607 0.58928,0.22614 1.07143,0.0654 1.07143,-0.35714 0,-0.42256 0.48214,-0.58327 1.07142,-0.35714 0.58929,0.22613 1.07143,0.0654 1.07143,-0.35715 0,-0.42255 0.48215,-0.58327 1.07143,-0.35714 0.58929,0.22614 1.07143,0.0854 1.07143,-0.31269 0,-0.3981 0.64286,-0.55572 1.42857,-0.35025 0.78572,0.20547 1.42857,0.0592 1.42857,-0.32497 0,-0.38419 0.80357,-0.54493 1.78572,-0.35718 0.98214,0.18775 1.78571,0.0126 1.78571,-0.38932 0,-0.40188 0.5625,-0.59805 1.25,-0.43593 0.6875,0.1621 5.83039,0.0516 11.42863,-0.24545 5.59825,-0.2971 10.17861,-0.2861 10.17857,0.0244 -3e-5,0.31056 1.2053,0.51012 2.67852,0.44346 1.47321,-0.0666 3.58947,0.24406 4.7028,0.69046 1.11332,0.44641 2.29122,0.64663 2.61756,0.44495 0.32634,-0.20169 0.70114,-0.12363 0.83291,0.17346 0.26439,0.5961 6.75518,3.12309 8.45387,3.29124 0.58928,0.0584 1.23214,0.30396 1.42857,0.54583 0.70508,0.86819 6.42881,3.50594 6.43951,2.96761 0.006,-0.30262 0.24708,-0.18084 0.53571,0.27063 0.28863,0.45148 2.45335,2.24155 4.81049,3.97794 5.48146,4.03792 15.26638,13.92774 18.67116,18.87134 1.45075,2.10643 2.92469,3.82986 3.27544,3.82986 0.35074,0 0.43906,0.32143 0.19626,0.71429 -0.2428,0.39285 -0.10106,0.71428 0.31499,0.71428 0.41604,0 0.68001,0.24107 0.5866,0.53572 -0.27182,0.85743 1.71155,5.17857 2.37694,5.17857 0.33286,0 0.43609,0.4407 0.2294,0.97933 -0.20669,0.53863 0.0445,1.42255 0.55814,1.96428 0.51366,0.54173 0.93977,1.30639 0.94692,1.69925 0.0349,1.92285 1.99436,8.21428 2.55825,8.21428 0.35368,0 0.59105,0.24107 0.52749,0.53572 -0.0636,0.29464 0.29603,2.0625 0.79908,3.92857 l 0.91464,3.39285 12.95092,0.0492 c 7.123,0.0271 13.9152,0.20412 15.09377,0.39345 1.17858,0.18933 22.45683,0.40826 47.28501,0.4865 34.95895,0.11017 45.34077,-0.0562 46.02261,-0.73749 1.2465,-1.2455 2.28566,-86.21437 1.6796,-137.33453 -0.80354,-67.77586 -0.72149,-66.33801 -3.78486,-66.32912 -1.61533,0.005 -3.15632,-0.37877 -4.23807,-1.05455 -0.49107,-0.30678 -1.19208,-0.37286 -1.55779,-0.14684 -0.36571,0.22603 -0.88037,0.0624 -1.14367,-0.36368 -0.26332,-0.42605 -0.92838,-0.60209 -1.47793,-0.39121 -0.54955,0.21088 -0.99918,0.0377 -0.99918,-0.38487 0,-0.42256 -0.48214,-0.58328 -1.07143,-0.35714 -0.58929,0.22613 -1.07143,0.16303 -1.07143,-0.14021 0,-0.30325 -2.49416,-1.57114 -5.54258,-2.81753 -14.95361,-6.114 -29.00654,-19.34082 -36.59465,-34.44342 -1.283,-2.55358 -2.53235,-4.80358 -2.77633,-5 -0.24397,-0.19643 -0.49804,-0.83929 -0.5646,-1.42858 -0.0666,-0.58928 -0.94045,-4.207 -1.94197,-8.03937 -1.10974,-4.24641 -1.9821,-9.9656 -2.2335,-14.642855 -0.22689,-4.2212 -0.55352,-8.574821 -0.72583,-9.674708 -0.17232,-1.099886 -0.0416,-1.831864 0.2905,-1.626617 0.3321,0.205246 0.80724,-1.573136 1.05588,-3.951961 0.59747,-5.716383 4.01076,-15.74362 8.09539,-23.781918 2.9173,-5.741075 4.38948,-7.577059 12.65523,-15.782567 6.39897,-6.352331 10.7904,-10.075472 13.90121,-11.785715 2.50103,-1.375 5.07246,-2.982143 5.71429,-3.571428 0.64183,-0.589286 1.48839,-1.08359 1.88125,-1.098455 0.60764,-0.02299 13.5484,-3.990209 16.78571,-5.145957 2.22309,-0.79366 4.18065,-0.969713 13.21429,-1.188418 5.10714,-0.123645 9.66366,0.0713 10.12558,0.433206 0.46193,0.361908 1.2655,0.587752 1.78571,0.501877 0.52022,-0.08588 1.42799,0.03449 2.01728,0.267486 0.58929,0.232993 3.84149,1.245361 7.22711,2.249707 12.71079,3.770652 22.43149,10.013654 33.20273,21.324057 6.34827,6.666038 9.50355,11.500908 13.5039,20.692211 1.15414,2.651786 2.33825,4.821429 2.63136,4.821429 0.29311,0 0.34791,0.482142 0.12178,1.071428 -0.22614,0.589286 -0.0364,1.071429 0.42171,1.071429 0.45807,0 0.68799,0.241071 0.51092,0.535714 -0.17707,0.294643 0.11868,2.625 0.65724,5.178571 1.25667,5.958523 1.25545,23.6553 -0.002,30.714284 -0.52492,2.94643 -0.81462,5.59822 -0.64378,5.89286 0.17083,0.29464 -0.0642,0.53571 -0.52226,0.53571 -0.45807,0 -0.64785,0.48215 -0.42171,1.07143 0.22613,0.58929 0.0654,1.07143 -0.35715,1.07143 -0.42256,0 -0.58327,0.48214 -0.35714,1.07143 0.22613,0.58929 0.1514,1.07143 -0.16607,1.07143 -0.82391,0 -2.33299,3.54944 -1.84487,4.33924 0.22461,0.36342 0.0896,0.66076 -0.29994,0.66076 -0.69112,0 -1.55416,1.86649 -1.4493,3.13443 0.0289,0.34893 -0.27438,0.83642 -0.67384,1.0833 -0.39946,0.24688 -2.32705,2.90098 -4.28352,5.898 -4.42015,6.77098 -12.5346,14.9644 -19.22521,19.41231 -5.48833,3.64864 -15.10535,8.36432 -19.99413,9.80407 -1.66964,0.4917 -3.03571,1.15447 -3.03571,1.47282 0,0.31834 -0.44963,0.40627 -0.99918,0.19538 -0.54955,-0.21088 -1.21461,-0.0349 -1.47793,0.39122 -0.26331,0.42605 -0.77796,0.5897 -1.14368,0.36368 -0.3657,-0.22603 -1.06671,-0.15995 -1.55778,0.14683 -0.49107,0.30679 -1.3241,0.62307 -1.85117,0.70284 -0.52707,0.0798 -1.08368,0.27044 -1.23691,0.42367 -0.15323,0.15323 -0.0709,56.86257 0.18313,126.02076 l 0.46173,125.74215 8.98947,0.45852 c 4.9442,0.25218 10.75732,0.45436 12.91803,0.44928 l 3.92857,-0.009 2.62067,-4.8573 c 1.44136,-2.67152 3.7696,-6.36249 5.17385,-8.20216 1.40426,-1.83968 2.368,-3.34486 2.14166,-3.34486 -0.71877,0 9.26492,-7.95956 11.31382,-9.02002 1.08036,-0.55917 1.96429,-1.34881 1.96429,-1.75477 0,-0.40595 0.32143,-0.53944 0.71429,-0.29664 0.39285,0.2428 0.71428,0.0475 0.71428,-0.43404 0,-0.48152 0.18754,-0.68794 0.41677,-0.45872 0.22922,0.22922 1.9516,-0.35413 3.82752,-1.29636 3.25518,-1.63497 3.43636,-1.88477 3.97229,-5.47629 0.30885,-2.06973 0.63884,-58.98518 0.73332,-126.47876 0.0945,-67.49359 0.39651,-122.94002 0.67117,-123.21429 0.27466,-0.27428 27.39192,-0.54143 60.26059,-0.59367 32.86866,-0.0522 60.48441,-0.1666 61.36834,-0.25413 1.47261,-0.14583 1.89058,-0.93595 1.79904,-3.40088 -0.0182,-0.49108 0.23089,-0.89286 0.55362,-0.89286 0.32273,0 0.80669,-0.72322 1.07546,-1.60714 0.9979,-3.28188 5.46937,-9.81382 9.44062,-13.7909 8.57853,-8.59112 15.27837,-11.55836 27.84555,-12.33232 4.46745,-0.27513 8.03571,-0.21857 8.03571,0.12738 0,0.34224 0.96429,0.48074 2.14286,0.30776 1.17857,-0.17298 2.14286,-0.10267 2.14286,0.15623 0,0.66079 5.10685,2.15726 5.83214,1.709 0.32803,-0.20273 0.59643,-0.009 0.59643,0.42999 0,0.43923 0.32143,0.59994 0.71428,0.35714 0.39286,-0.2428 0.71429,-0.0475 0.71429,0.43404 0,0.48152 0.17618,0.6993 0.39152,0.48396 0.47317,-0.47317 2.59374,1.22462 8.86217,7.0953 5.23122,4.89929 9.40921,11.31932 11.28692,17.34384 0.67344,2.16072 1.40502,4.014 1.62574,4.11843 0.22071,0.10441 0.27498,1.2718 0.12061,2.5942 -0.15439,1.3224 0.0715,2.622 0.50188,2.88802 1.02388,0.63279 1.01794,5.39935 -0.006,5.39935 -0.4898,0 -0.68613,1.08185 -0.51741,2.85105 0.14953,1.56808 0.0983,2.93415 -0.11388,3.03571 -0.4221,0.20207 -3.16432,8.31744 -3.20009,9.47039 -0.0122,0.39285 -0.20409,0.875 -0.42645,1.07143 -0.22235,0.19642 -1.39071,1.80357 -2.59634,3.57142 -2.6198,3.8415 -9.521,10.4916 -13.24937,12.7673 -1.47321,0.89921 -2.67857,1.86127 -2.67857,2.1379 0,0.27663 -0.5625,0.55403 -1.25,0.61644 -0.6875,0.0624 -3.66072,0.79656 -6.60714,1.63145 -4.58753,1.29991 -6.48593,1.45514 -13.21429,1.08051 -10.6428,-0.59257 -11.07143,-0.64467 -11.07143,-1.34573 0,-0.33667 -0.48214,-0.42712 -1.07143,-0.20099 -0.58928,0.22613 -1.07219,0.18016 -1.07313,-0.10215 -7.1e-4,-0.28231 -1.84914,-1.47068 -4.10714,-2.64083 -5.33121,-2.76275 -14.21516,-11.6467 -16.97791,-16.97791 -1.17015,-2.258 -2.38757,-4.10621 -2.7054,-4.10714 -0.31783,-7.2e-4 -0.39715,-0.29412 -0.17625,-0.65153 0.22088,-0.3574 0.2092,-1.15124 -0.0259,-1.76407 -0.3821,-0.99575 -5.99714,-1.11186 -52.7935,-1.09173 l -52.36592,0.0225 -0.47465,3.70584 c -0.78744,6.14795 -0.90413,108.32507 -0.1545,135.28437 l 0.69931,25.14996 2.93467,0.43091 c 4.33735,0.63686 49.76565,0.78537 51.95647,0.16985 1.08483,-0.3048 2.06182,-1.21044 2.31167,-2.14286 0.23801,-0.88823 0.43713,-8.59233 0.4425,-17.12022 l 0.009,-15.50524 -2.49992,-1.99473 c -1.37496,-1.09711 -2.58822,-1.83402 -2.69613,-1.6376 -0.10791,0.19643 -0.67045,-0.0511 -1.25007,-0.55023 -0.57963,-0.49906 -2.98245,-2.14097 -5.33959,-3.64869 -7.57441,-4.84489 -15.35705,-13.95073 -17.51689,-20.49509 -0.4445,-1.34686 -1.02433,-2.4491 -1.2885,-2.44941 -0.26418,-3.3e-4 -0.57728,-1.52711 -0.69579,-3.39286 -0.11851,-1.86576 -0.46143,-3.47981 -0.76204,-3.58678 -0.30062,-0.10696 -0.0998,-3.96411 0.44628,-8.57143 0.54608,-4.60731 1.04971,-9.01979 1.11919,-9.80551 0.0695,-0.78571 0.52811,-1.85331 1.01918,-2.37245 0.49107,-0.51912 0.89286,-1.40305 0.89286,-1.96428 0,-1.44532 0.19657,-1.94796 1.23716,-3.16327 0.50456,-0.58928 0.87195,-1.23214 0.81641,-1.42857 -0.23827,-0.84284 8.39343,-9.4196 11.93418,-11.85821 2.12816,-1.46572 3.86939,-2.95192 3.86939,-3.30267 0,-0.35074 0.32143,-0.43906 0.71428,-0.19626 0.39286,0.2428 0.71429,0.0821 0.71429,-0.35714 0,-0.43923 0.32143,-0.59995 0.71429,-0.35715 0.39285,0.2428 0.71428,0.0821 0.71428,-0.35714 0,-0.43923 0.26656,-0.63386 0.59235,-0.43251 0.32579,0.20135 2.174,-0.13837 4.10714,-0.75492 4.6731,-1.49047 24.77271,-1.63077 26.0148,-0.1816 0.19643,0.22918 2.30897,1.44889 4.69453,2.71046 11.28307,5.96689 19.83465,16.82584 21.84625,27.74078 0.41885,2.27264 0.99183,4.61422 1.2733,5.20351 0.54597,1.14303 0.47938,6.07775 -0.10602,7.85714 -0.19387,0.58928 -0.88696,3.32143 -1.54019,6.07143 -2.88732,12.15507 -9.94854,20.95213 -21.67219,26.99984 -3.61667,1.86567 -6.7728,3.71096 -7.01365,4.10065 -0.24084,0.38969 -0.65675,0.57306 -0.92425,0.4075 -0.26749,-0.16556 -0.39565,12.84705 -0.2848,28.91692 l 0.20156,29.21794 -21.27299,10e-4 c -11.70014,7.2e-4 -29.22834,0.21303 -38.95155,0.47152 l -17.67857,0.46997 0,22.41809 0,22.41809 1.67235,1.57468 c 1.7985,1.69345 8.67765,5.94127 9.28873,5.73572 0.20383,-0.0686 1.86387,1.21715 3.68896,2.85715 1.82509,1.63999 3.61475,2.9818 3.97701,2.9818 0.36226,0 0.69385,0.32143 0.73687,0.71429 0.043,0.39286 1.08766,1.86925 2.32143,3.28087 3.6033,4.12273 5.05039,5.99023 4.81516,6.21405 -0.41509,0.39496 1.52986,4.43365 2.13516,4.43365 0.33286,0 0.42019,0.48214 0.19406,1.07143 -0.22613,0.58929 -0.13568,1.07143 0.20099,1.07143 0.71688,0 0.7612,0.36943 1.48681,12.39083 0.30464,5.0471 0.28482,9.34231 -0.0441,9.5449 -0.32886,0.2026 -0.44334,0.95953 -0.2544,1.68206 0.18895,0.72254 0.0266,1.41935 -0.36072,1.54847 -0.38735,0.12912 -0.75502,1.10858 -0.81703,2.1766 -0.062,1.06802 -0.31484,1.94207 -0.56182,1.94235 -0.46476,5.2e-4 -2.32722,4.0634 -2.03267,4.43415 0.0914,0.11507 -0.75922,1.30499 -1.89032,2.64427 -3.58363,4.24341 -9.5565,10.77904 -9.5565,10.45706 0,-0.17043 -1.68018,0.79664 -3.73372,2.14906 -2.05353,1.35242 -4.14282,2.45894 -4.64286,2.45894 -0.50002,0 -0.90914,0.26786 -0.90914,0.59524 0,0.32738 -0.40178,0.613 -0.89286,0.6347 -0.49107,0.0217 -2.82142,0.57258 -5.17857,1.22415 -3.96632,1.0964 -14.30629,1.65981 -16.78571,0.91464 -6.8188,-2.04934 -8.89237,-2.5404 -9.40069,-2.22624 -0.32962,0.20371 -0.59931,0.0516 -0.59931,-0.33792 0,-0.71033 -2.74519,-1.92581 -3.75,-1.66038 -0.29464,0.0778 -0.53572,-0.19887 -0.53572,-0.61492 0,-0.41604 -0.28775,-0.5786 -0.63944,-0.36124 -0.35168,0.21736 -0.8414,-0.13111 -1.08823,-0.77436 -0.24685,-0.64326 -0.65053,-0.96784 -0.89708,-0.72129 -0.24655,0.24655 -0.85594,-0.10923 -1.35418,-0.79062 -0.49825,-0.68139 -1.21333,-1.2389 -1.58907,-1.2389 -0.97967,0 -6.57346,-5.55678 -6.57422,-6.53072 -3.5e-4,-0.44905 -0.48278,-1.00145 -1.07206,-1.22759 -0.58929,-0.22613 -1.07143,-0.90337 -1.07143,-1.50499 0,-0.60162 -0.25454,-1.09384 -0.56565,-1.09384 -0.62955,0 -3.79974,-6.74347 -5.12087,-10.89286 l -0.85284,-2.67857 -13.33746,-3.1e-4 -13.33747,-3e-4 0.2014,30.14219 c 0.11078,16.5782 0.28963,30.2304 0.39746,30.33823 0.10783,0.10783 25.08863,0.22864 55.51289,0.26849 l 55.31683,0.0724 1.0781,-4.16037 c 0.59295,-2.2882 1.33514,-4.56215 1.6493,-5.05322 0.31415,-0.49107 0.37254,-1.21429 0.12974,-1.60714 -0.2428,-0.39286 -0.0666,-0.71429 0.39141,-0.71429 0.45807,0 0.65581,-0.46138 0.43942,-1.02528 -0.21639,-0.5639 -0.0604,-1.13628 0.34653,-1.27193 0.40699,-0.13567 0.79072,-1.12049 0.85273,-2.18851 0.062,-1.06801 0.30224,-1.94207 0.53382,-1.94234 0.70898,-7.2e-4 2.12357,-3.63615 1.68872,-4.33975 -0.2246,-0.36342 -0.049,-0.66076 0.39023,-0.66076 0.43922,0 0.59994,-0.32143 0.35714,-0.71429 -0.2428,-0.39285 -0.17036,-0.71428 0.16098,-0.71428 0.33134,0 1.17205,-0.96429 1.86825,-2.14286 0.6962,-1.17857 1.07441,-2.14286 0.84047,-2.14286 -0.23394,0 0.17861,-0.64828 0.9168,-1.44062 0.73818,-0.79235 1.79482,-2.31913 2.34808,-3.39286 0.55328,-1.07373 1.40825,-2.20927 1.89997,-2.52344 0.49171,-0.31416 0.89402,-0.84828 0.89402,-1.18693 0,-0.50516 4.17197,-4.78227 12.20278,-12.51031 0.62224,-0.59878 1.50617,-1.08869 1.96428,-1.08869 0.45812,0 0.83294,-0.32143 0.83294,-0.71429 0,-0.39286 0.48214,-0.71428 1.07143,-0.71428 0.58928,0 1.07143,-0.32143 1.07143,-0.71429 0,-0.39286 0.45918,-0.71429 1.0204,-0.71429 0.56123,0 1.46531,-0.44489 2.00907,-0.98865 2.93831,-2.93831 17.90635,-8.41921 23.04196,-8.43735 1.96428,-0.007 3.84385,-0.17727 4.17682,-0.37852 0.69767,-0.42169 13.95433,-0.27972 21.02695,0.22519 5.26529,0.37588 10.01594,1.45645 11.40337,2.59378 0.49107,0.40255 0.89286,0.52443 0.89286,0.27083 0,-0.25358 0.86979,0.10885 1.93287,0.8054 1.06308,0.69656 2.03519,1.17143 2.16024,1.05527 0.12506,-0.11615 2.12953,0.80265 4.45439,2.04179 2.32487,1.23914 4.32597,2.15898 4.4469,2.04409 0.12094,-0.11489 1.15419,0.657 2.29612,1.71531 1.14193,1.05831 2.20328,1.79715 2.35855,1.64188 0.67134,-0.67134 14.72733,13.68949 17.79893,18.18493 1.85657,2.71718 3.69385,4.94034 4.08284,4.94034 0.38898,0 0.50739,0.19986 0.26311,0.44414 -0.41723,0.41724 2.73383,7.35267 3.69258,8.12729 0.24312,0.19643 0.53379,0.83928 0.64594,1.42857 0.11214,0.58929 0.8228,2.54825 1.57923,4.35326 0.75644,1.805 1.72207,4.82901 2.14585,6.72003 0.74565,3.3272 0.94085,20.59254 0.31473,27.83722 -0.34858,4.03343 -2.22772,11.0024 -3.32726,12.33949 -0.40382,0.49107 -0.4538,0.89778 -0.11105,0.90379 0.34274,0.006 0.20528,0.27601 -0.30547,0.59999 -0.51075,0.32398 -0.98094,1.28333 -1.04486,2.13192 -0.0639,0.84858 -0.38822,1.54287 -0.72066,1.54287 -0.33244,0 -0.40578,0.32143 -0.16298,0.71429 0.2428,0.39285 0.0821,0.71428 -0.35715,0.71428 -0.43923,0 -0.6169,0.29398 -0.39485,0.65328 0.22207,0.3593 0.10443,0.76109 -0.26141,0.89286 -0.36584,0.13177 -0.76963,0.69893 -0.89731,1.26037 -0.12768,0.56143 -0.71428,1.61649 -1.30357,2.34459 -0.58929,0.72808 -0.99933,1.46643 -0.91121,1.64077 0.0881,0.17434 -0.63828,1.17858 -1.61423,2.23165 -0.97595,1.05308 -1.62422,2.06492 -1.4406,2.24854 0.18363,0.18362 -0.37568,0.92612 -1.2429,1.64999 -0.86723,0.72388 -1.33477,1.32683 -1.039,1.3399 0.29578,0.0131 -0.73929,1.17751 -2.30014,2.58765 -1.56085,1.41013 -2.76713,2.93692 -2.68063,3.39285 0.0865,0.45594 -0.21319,0.75906 -0.66598,0.67361 -0.4528,-0.0855 -2.1403,1.27343 -3.75,3.01975 -1.60971,1.74632 -2.93743,2.94124 -2.9505,2.65538 -0.0131,-0.28587 -0.61602,0.18978 -1.3399,1.05701 -0.72387,0.86722 -1.50919,1.38372 -1.74514,1.14777 -0.23595,-0.23595 -0.63096,0.0973 -0.87781,0.74055 -0.24683,0.64326 -0.68787,1.02181 -0.98006,0.84123 -0.2922,-0.18059 -1.18859,0.28404 -1.99198,1.03251 -0.80338,0.74847 -1.65563,1.16593 -1.89388,0.92769 -0.23825,-0.23825 -0.43318,-0.107 -0.43318,0.29167 0,0.39866 -1.36607,1.31267 -3.03572,2.03112 -1.66964,0.71845 -4.38415,1.89226 -6.03224,2.60848 -1.64809,0.71622 -3.60344,1.30221 -4.34524,1.30221 -0.74179,0 -1.5723,0.22359 -1.84557,0.49687 -0.86227,0.86226 -5.80948,1.75205 -9.22505,1.65917 -1.48395,-0.0403 -3.03018,0.13189 -3.43608,0.38275 -1.02082,0.6309 -14.8916,0.78983 -15.87368,0.18187 z M 60.450291,775.14953 C 51.09503,750.84851 17.960029,663.90443 17.711857,663.00667 c -0.313894,-1.1355 0.365418,-1.24888 7.416336,-1.23783 l 7.761879,0.0122 18.214286,48.55633 c 10.017857,26.70599 18.40018,48.55766 18.627384,48.55927 0.227204,0.002 8.620568,-21.77387 18.651923,-48.38994 l 18.238825,-48.39286 7.90338,-0.20148 7.90339,-0.20148 -3.38821,8.77291 c -1.86352,4.8251 -11.72413,30.70528 -21.912457,57.51151 l -18.524235,48.73859 -8.76768,0.0114 c -8.437904,0.011 -8.79095,-0.0491 -9.386387,-1.59573 l 0,-3e-5 z m 79.582639,2.78952 c -13.54765,-4.49046 -20.4978,-16.30986 -18.20923,-30.96655 1.93514,-12.39317 9.63203,-19.74481 23.71483,-22.65107 3.99604,-0.82466 9.55663,-1.13619 20.28033,-1.13619 l 14.77472,0 -0.45594,-4.36218 c -0.56905,-5.44444 -3.43246,-10.90466 -7.12057,-13.57818 -4.85202,-3.51725 -9.1806,-4.56388 -18.69843,-4.52121 -9.36424,0.042 -16.54009,1.5795 -23.25665,4.98304 l -3.52906,1.78831 0,-6.40953 0,-6.40952 5.77076,-1.82299 c 21.48089,-6.78581 41.90078,-4.50303 51.34214,5.73964 1.65507,1.79553 3.97075,5.31936 5.14596,7.83073 3.63867,7.77568 4.11718,12.74126 4.14479,43.01189 l 0.0249,27.32143 -6.75891,0 -6.75891,0 -0.20538,-6.49411 -0.20537,-6.49412 -2.5,3.34684 c -3.05491,4.08972 -8.08431,7.87701 -13.05771,9.83288 -4.73858,1.8635 -19.94922,2.48015 -24.44229,0.99089 z m 24.80475,-12.38395 c 9.5429,-4.2826 15.55239,-15.32309 15.55239,-28.57247 l 0,-3.79739 -8.75,0.0124 c -10.78487,0.0153 -21.18995,1.05726 -25.81151,2.58485 -4.33297,1.4322 -8.66029,5.25052 -9.77364,8.62401 -1.03248,3.12843 -1.07192,10.60163 -0.0695,13.1637 1.01847,2.60301 4.90599,6.89684 7.42238,8.19811 5.55357,2.87187 14.75951,2.78028 21.42986,-0.21319 z m 59.12382,-48.44129 0,-59.64285 6.78571,0 6.78572,0 0,59.64285 0,59.64286 -6.78572,0 -6.78571,0 0,-59.64286 z m 65.4938,60.71373 c -12.91385,-3.55011 -22.05246,-13.46268 -26.01084,-28.21373 -1.75663,-6.54615 -1.71038,-24.87438 0.0793,-31.42857 3.10167,-11.35893 10.16748,-20.88141 18.54764,-24.99637 11.58571,-5.68899 27.63891,-5.63036 38.49134,0.1406 9.19397,4.88905 16.35081,15.1483 18.83421,26.99863 1.77429,8.4666 1.06438,24.99059 -1.39869,32.55601 -4.27704,13.13711 -12.97507,21.70744 -25.2623,24.89138 -5.30158,1.37377 -18.36653,1.40299 -23.28067,0.0521 l 0,-2e-5 z m 22.21425,-12.39678 c 9.26092,-4.80494 14.39426,-16.05068 14.4224,-31.59554 0.0278,-15.32493 -5.28427,-26.45562 -14.87292,-31.16442 -3.45844,-1.69837 -4.9214,-1.98556 -10.11467,-1.98556 -5.20938,0 -6.65197,0.28508 -10.16018,2.00782 -10.07856,4.94918 -15.46592,17.67417 -14.57267,34.42075 0.58558,10.97838 3.17651,18.18639 8.55755,23.8073 5.15071,5.3803 8.43923,6.58222 17.24673,6.30346 4.97207,-0.15736 7.12303,-0.56378 9.49376,-1.79381 z m 347.64909,12.46961 c -12.59743,-3.98405 -18.72164,-13.43942 -18.08802,-27.92671 0.49349,-11.28307 5.12649,-18.32578 15.04165,-22.86509 6.86943,-3.14493 12.38734,-3.89738 28.67988,-3.91092 l 14.91922,-0.0124 -0.37575,-4.68105 c -0.47296,-5.89213 -3.1209,-10.46022 -7.94255,-13.7021 -5.04366,-3.39114 -8.27438,-4.12285 -17.94871,-4.06514 -9.14574,0.0546 -14.39483,1.09305 -21.57506,4.26849 -2.17791,0.96318 -4.08056,1.75123 -4.22811,1.75123 -0.14754,0 -0.26826,-2.69315 -0.26826,-5.98477 0,-5.87151 0.0372,-5.99891 1.96429,-6.73196 16.74661,-6.37024 35.7022,-6.72006 47.28584,-0.87266 4.91329,2.48022 10.272,8.08723 12.61018,13.19449 3.48134,7.60425 3.8282,11.39673 3.84158,42.00204 l 0.0124,28.39286 -6.78572,0 -6.78571,0 0,-6.45533 0,-6.45533 -3.06345,3.77676 c -6.48065,7.98964 -14.40809,11.30706 -26.83322,11.22897 -4.18183,-0.0263 -8.88905,-0.4544 -10.46048,-0.95137 z m 18.98469,-10.44006 c 13.10601,-2.4855 21.37246,-13.96026 21.37246,-29.66737 l 0,-4.6077 -8.39286,0.0184 c -27.98804,0.0615 -36.54568,4.23976 -36.59146,17.86594 -0.0277,8.24021 4.24014,13.86062 12.12717,15.97062 4.80457,1.28535 6.57978,1.35028 11.48469,0.42008 z m -78.2704,8.28992 c -4.73783,-1.17397 -9.16945,-3.52354 -10.97477,-5.81862 -0.80682,-1.02572 -2.19676,-3.68647 -3.08874,-5.91279 -1.56919,-3.91654 -1.63385,-4.99793 -1.99343,-33.33358 l -0.37163,-29.28571 -5.17857,-0.20987 -5.17857,-0.20986 0,-4.96871 0,-4.9687 5.35714,0 5.35714,0 0,-12.5 0,-12.5 6.78572,0 6.78571,0 0,12.5 0,12.5 14.64286,0 14.64285,0 0,4.98521 0,4.98521 -14.46428,0.19336 -14.46429,0.19336 0,28.21428 c 0,25.8907 0.10748,28.43031 1.30504,30.83733 1.94531,3.90996 5.13501,4.89841 17.41225,5.39585 l 10.21128,0.41374 0,5.24797 0,5.24797 -11.60714,-0.0607 c -6.61255,-0.0347 -13.14394,-0.44155 -15.17857,-0.9457 l 0,-3e-5 z m -100,2.14776 c -4.9223,-1.5608 -8.53106,-3.7646 -11.57866,-7.07085 -5.15028,-5.5874 -6.74104,-10.19988 -6.70672,-19.44649 0.0498,-13.41252 6.32068,-21.70477 19.73942,-26.10219 4.47288,-1.4658 6.68528,-1.66018 21.93882,-1.92755 l 16.96428,-0.29736 0,-2.67778 c 0,-13.33143 -11.17881,-21.00564 -28.85556,-19.80922 -7.29476,0.49374 -15.24795,2.49267 -20.49347,5.15078 l -3.50811,1.77769 0,-6.41764 0,-6.41764 6.19563,-1.88979 c 17.22047,-5.25256 32.30659,-5.10283 43.57924,0.43253 4.95218,2.43173 9.94223,7.47182 12.37673,12.50082 3.67421,7.58991 3.78954,8.74218 4.09089,40.8748 l 0.28303,30.17857 -6.80738,0 -6.80739,0 -0.20537,-6.46796 -0.20538,-6.46797 -2.67794,3.59142 c -3.35243,4.496 -8.83165,8.24714 -14.71873,10.07664 -5.33156,1.65686 -17.94825,1.88527 -22.60333,0.40919 z m 18.93315,-10.4279 c 5.31824,-1.00858 9.57336,-3.32833 13.18225,-7.18653 5.39031,-5.76268 8.20962,-13.51519 8.23118,-22.63403 l 0.0106,-4.46429 -8.75,0.0124 c -27.71858,0.0392 -36.25,4.24062 -36.25,17.85178 0,5.46536 0.98778,8.21594 4.18869,11.6639 4.23066,4.55719 11.29731,6.29103 19.38732,4.75679 z m -153.57601,-48.3231 0,-57.60969 22.32143,0.43583 c 23.26081,0.45417 30.75127,1.22156 40.2197,4.12052 16.62589,5.09035 27.15876,16.06741 31.86084,33.20447 1.33225,4.85549 1.56465,7.62822 1.61299,19.24427 0.0674,16.19681 -0.91301,21.58572 -5.76314,31.67742 -4.0549,8.43709 -9.67332,14.25429 -17.86065,18.49254 -12.81608,6.63436 -21.65938,8.03444 -50.78402,8.04011 l -21.60715,0.004 0,-57.60968 z m 52.07986,43.7459 c 14.64567,-3.75287 23.35929,-12.53663 26.99043,-27.20765 1.74445,-7.04819 1.73566,-25.97752 -0.0151,-32.5 -3.19336,-11.89689 -9.14933,-19.58704 -18.51927,-23.91144 -8.17639,-3.77356 -14.04718,-4.65999 -30.86294,-4.65999 l -14.67297,0 0,45.07641 0,45.0764 16.25,-0.35008 c 11.76385,-0.25343 17.51437,-0.67407 20.82986,-1.52365 z M 570.06442,579.46965 c -3.58541,-0.0906 -5.5239,-0.22184 -8.42778,-0.57043 -0.88509,-0.10626 -1.66638,-0.15787 -1.7362,-0.11473 -0.0698,0.0432 -0.12695,0.02 -0.12695,-0.0514 0,-0.0714 -0.18467,-0.12471 -0.41038,-0.11839 -0.8696,0.0244 -5.14556,-1.01426 -6.00464,-1.4585 -0.226,-0.11687 -0.46608,-0.17842 -0.53349,-0.13675 -0.0674,0.0417 -0.12256,0.009 -0.12256,-0.0715 0,-0.081 -0.0852,-0.11453 -0.1894,-0.0745 -0.10418,0.04 -0.18941,0.0116 -0.18941,-0.0631 0,-0.0747 -0.0816,-0.10451 -0.18125,-0.0663 -0.0997,0.0383 -0.19912,0.0253 -0.22097,-0.0289 -0.0218,-0.0542 -0.46588,-0.25865 -0.98674,-0.45444 -5.84831,-2.19844 -13.22581,-5.97911 -18.43528,-9.44737 -6.82058,-4.54085 -13.51012,-11.36561 -18.5267,-18.90118 -4.03957,-6.06794 -6.90734,-12.11468 -9.58168,-20.20305 -0.65443,-1.97926 -1.226,-3.6839 -1.27017,-3.78807 -0.0442,-0.10417 -0.0974,-0.24622 -0.11835,-0.31567 -0.0209,-0.0694 -0.36748,-1.18769 -0.77011,-2.48498 l -0.73205,-2.3587 -0.69448,-0.0679 c -0.38196,-0.0373 -2.45593,-0.0978 -4.60882,-0.13441 -2.15289,-0.0366 -5.73262,-0.0978 -7.95495,-0.136 -2.22234,-0.0382 -11.5694,-0.18026 -20.77126,-0.3157 -9.20186,-0.13544 -20.6229,-0.31641 -25.38009,-0.40216 -4.75718,-0.0857 -11.88823,-0.15707 -15.84676,-0.15849 -3.95854,-10e-4 -6.48708,-0.031 -5.61898,-0.0657 1.62548,-0.065 -13.47435,-0.21485 -36.57861,-0.36296 -7.23563,-0.0464 -13.19623,-0.12486 -13.24575,-0.17438 -0.0495,-0.0495 -0.10487,-21.61192 -0.12298,-47.91645 -0.0218,-31.68411 -0.0778,-48.52957 -0.16575,-49.90982 -0.0731,-1.14589 -0.13573,-4.01535 -0.13929,-6.37658 -0.0113,-7.48742 -0.29774,-14.81895 -0.81175,-20.77583 -0.0903,-1.04669 -0.21513,-1.95145 -0.27736,-2.01056 -0.15392,-0.14622 -101.63911,0.0782 -109.7147,0.24256 -9.13109,0.1859 -10.7988,0.31919 -12.08244,0.96568 -0.71406,0.35963 -1.13456,0.88426 -1.56909,1.95764 -0.17955,0.44353 -0.34918,0.83009 -0.37696,0.85903 -0.0278,0.0289 -0.0505,-7.32656 -0.0505,-16.34553 0,-9.26798 0.0476,-16.34599 0.10951,-16.27819 0.0602,0.066 0.22643,0.57452 0.36932,1.13011 1.21627,4.72908 1.45688,5.51479 1.71926,5.61431 0.24762,0.0939 38.65365,0.96899 46.7943,1.0662 2.04872,0.0245 7.1058,0.10552 11.23795,0.18011 10.39307,0.18763 49.92084,0.21091 55.36899,0.0326 5.93331,-0.19418 8.1678,-0.35425 8.35578,-0.59859 0.46721,-0.60727 0.82125,-6.05759 0.98304,-15.13347 0.162,-9.0879 0.30329,-32.21163 0.3115,-50.98113 l 0.009,-21.18164 9.21764,0 9.21765,0 0.0156,9.12294 c 0.009,5.01762 0.0285,9.35022 0.0444,9.62802 0.0158,0.27779 0.0481,14.53988 0.0718,31.69353 0.0657,47.54727 0.19552,85.41161 0.29329,85.50938 0.0483,0.0483 1.29355,0.13114 2.76716,0.18402 2.99183,0.10737 20.65724,0.48639 22.63685,0.4857 l 1.26975,0 0.3912,-0.91545 c 0.60953,-1.42628 1.75381,-3.84991 1.9824,-4.19879 0.11365,-0.17343 0.16269,-0.3162 0.10901,-0.31727 -0.0537,-10e-4 -0.0372,-0.0437 0.0367,-0.0947 0.0739,-0.051 0.52298,-0.83144 0.99803,-1.73427 1.61745,-3.074 3.17746,-5.41298 5.29867,-7.94447 4.41624,-5.27043 10.13265,-9.68057 16.59131,-12.8 0.94952,-0.4586 1.75481,-0.86532 1.78953,-0.90382 0.0347,-0.0385 0.14837,-0.0875 0.25254,-0.1089 0.10417,-0.0214 0.41669,-0.15632 0.69448,-0.29983 0.27779,-0.1435 1.01647,-0.4467 1.6415,-0.67377 1.96293,-0.71311 2.06663,-0.78192 2.2702,-1.5065 0.86935,-3.09427 1.18664,-24.21812 1.19731,-79.71372 l 0.005,-25.4121 9.3312,0 9.33119,0 0.057,0.59978 c 0.0313,0.32988 0.0656,3.18514 0.0761,6.34502 0.0105,3.15988 0.0487,7.02372 0.0848,8.5863 0.0361,1.56257 0.12216,5.31277 0.19116,8.33375 0.13557,5.93633 0.34533,11.77032 0.43865,12.20003 0.0677,0.31184 0.32695,0.35219 3.53398,0.55018 13.72252,0.84718 47.5049,1.14746 50.76017,0.4512 1.87439,-0.40092 2.6839,-0.92005 3.02201,-1.93802 0.70316,-2.11701 0.87731,-6.29204 0.79372,-19.02893 -0.0625,-9.52427 -0.23249,-14.04432 -0.54712,-14.54772 -0.096,-0.15362 -0.51853,-0.56557 -0.93896,-0.91545 l -0.76439,-0.63614 10.34975,0 10.34976,0 -0.014,28.90141 -0.014,28.90141 -4.55236,0.0744 c -2.50379,0.0409 -11.14358,0.10395 -19.19955,0.14008 -20.45573,0.0917 -48.14436,0.30699 -51.03115,0.39673 l -2.41755,0.0752 -0.0712,0.35595 c -0.12148,0.60739 -0.27074,17.50946 -0.27039,30.6165 0,9.88081 0.0358,12.69911 0.16928,13.44766 0.39772,2.22975 1.10357,3.0086 4.56547,5.03763 0.38196,0.22387 0.74495,0.39879 0.80663,0.3887 0.0617,-0.0101 0.14691,0.0342 0.1894,0.0985 0.0425,0.0642 0.98639,0.60107 2.09756,1.19295 3.42346,1.82357 5.48121,3.15398 8.14436,5.26563 1.61566,1.28108 5.14878,4.81858 6.44391,6.4519 2.14035,2.69926 4.32684,6.4073 5.62142,9.53332 1.6336,3.94462 2.7292,8.59308 3.09569,13.13456 0.18874,2.33878 0.0886,7.22332 -0.19271,9.40447 -1.00931,7.82421 -4.10106,14.58575 -9.62425,21.04786 -6.15811,7.20496 -14.36564,12.01598 -23.52681,13.79077 -3.04394,0.5897 -4.21085,0.69045 -8.01809,0.6923 -3.96045,0.002 -4.96059,-0.0927 -8.52316,-0.80637 -6.84086,-1.37039 -13.38838,-4.50619 -18.75095,-8.98041 -1.30662,-1.09018 -4.93436,-4.65471 -4.8915,-4.80629 0.0134,-0.0473 -0.1417,-0.22561 -0.34459,-0.39633 -0.20289,-0.17072 -0.34064,-0.33865 -0.3061,-0.37318 0.0345,-0.0345 -0.0899,-0.1829 -0.27657,-0.32971 -0.18664,-0.14682 -0.28907,-0.26883 -0.22763,-0.27114 0.0615,-0.002 -0.0224,-0.11595 -0.18636,-0.25254 -0.16394,-0.13658 -0.24918,-0.25023 -0.1894,-0.25254 0.0598,-0.002 -0.0167,-0.10889 -0.17005,-0.23685 -0.1533,-0.12798 -0.25106,-0.26033 -0.21726,-0.29415 0.0338,-0.0338 -0.10503,-0.23974 -0.30856,-0.45762 -0.20352,-0.21787 -0.33305,-0.39794 -0.28782,-0.40015 0.0452,-0.002 -0.0281,-0.0874 -0.16287,-0.1894 -0.13482,-0.10196 -0.20504,-0.18539 -0.15605,-0.18539 0.049,0 -0.0614,-0.22728 -0.24518,-0.50508 -0.18384,-0.27779 -0.37405,-0.50507 -0.42269,-0.50507 -0.0487,0 -0.0899,-0.071 -0.0917,-0.15784 -0.005,-0.24587 -0.93624,-1.7362 -1.08481,-1.7362 -0.0729,0 -0.0976,-0.035 -0.0548,-0.0778 0.0908,-0.0907 -1.52643,-3.37419 -1.69281,-3.437 -0.0617,-0.0233 -0.0827,-0.0901 -0.0467,-0.14838 0.0827,-0.13379 -0.19449,-0.75629 -0.33676,-0.75629 -0.0583,0 -0.0918,-0.0457 -0.0744,-0.10153 0.0174,-0.0558 -0.063,-0.29734 -0.17858,-0.53664 -0.22738,-0.47082 -1.83254,-4.88188 -2.22601,-6.11722 l -0.2413,-0.75762 -13.6124,0 -13.61241,0 0.0888,10.03144 c 0.0488,5.5173 0.11358,10.57438 0.14384,11.23795 0.0303,0.66358 0.11971,9.84331 0.19875,20.39941 0.079,10.55609 0.1594,19.21069 0.17857,19.23244 0.0645,0.0731 89.79196,0.52987 103.93922,0.52908 l 7.59805,0 0.33917,-1.48366 c 0.5811,-2.542 1.54927,-6.37071 1.82799,-7.2289 0.1466,-0.45141 0.69419,-2.15605 1.21688,-3.78807 5.09826,-15.91868 13.67205,-28.43283 25.7403,-37.57015 2.72475,-2.06301 7.02109,-4.79068 9.55833,-6.06842 0.47238,-0.23788 0.85887,-0.49197 0.85887,-0.56465 0,-0.0727 0.0568,-0.097 0.12627,-0.0541 0.0694,0.0429 0.12627,0.0179 0.12627,-0.0557 0,-0.0735 0.0438,-0.11951 0.0973,-0.10215 0.15591,0.0506 1.16542,-0.43732 1.16542,-0.56327 0,-0.063 0.0568,-0.0794 0.12627,-0.0365 0.0694,0.0429 0.12627,0.0145 0.12627,-0.0631 0,-0.0776 0.0568,-0.10606 0.12626,-0.0631 0.0695,0.0429 0.12627,0.0145 0.12627,-0.0631 0,-0.0776 0.0549,-0.10727 0.12194,-0.0658 0.1371,0.0847 1.15343,-0.39658 1.29666,-0.61406 0.0528,-0.0802 0.0944,-0.0865 0.0966,-0.0146 0.003,0.0842 0.0348,0.0842 0.0967,0 0.12687,-0.17252 0.89485,-0.56821 1.10282,-0.56821 0.0929,0 0.3298,-0.08 0.52641,-0.17773 0.1966,-0.0977 0.49952,-0.23521 0.67314,-0.30548 0.17362,-0.0703 0.62819,-0.26841 1.01016,-0.4403 1.15341,-0.51908 4.73837,-1.78703 6.81853,-2.41162 2.01914,-0.60629 4.88614,-1.24916 5.06841,-1.13651 0.0569,0.0351 0.20788,0.008 0.33557,-0.0603 0.28946,-0.15492 1.44957,-0.21589 8.47186,-0.44525 4.85952,-0.15872 6.43528,-0.15943 11.84453,-0.005 3.43163,0.0978 6.28074,0.20341 6.33138,0.23469 0.0506,0.0313 0.57317,0.089 1.16118,0.12812 0.58802,0.0392 1.2964,0.10219 1.5742,0.14003 1.61748,0.22036 6.07321,1.42841 7.19733,1.95132 0.27779,0.12924 1.42951,0.5833 2.55937,1.00905 5.48576,2.06708 10.47285,4.6606 15.49711,8.05922 10.21393,6.90913 18.42271,16.00479 24.46728,27.11079 1.58526,2.91266 4.01185,8.37007 4.75825,10.7013 0.0834,0.26043 0.18982,0.47355 0.23653,0.4736 0.0467,5e-5 0.0936,0.1279 0.10416,0.28411 0.0106,0.1562 0.0911,0.45448 0.17882,0.66282 0.0878,0.20834 0.16924,0.40722 0.18106,0.44194 0.0119,0.0347 0.0556,0.14837 0.0973,0.25254 0.7079,1.76754 2.11649,7.76589 1.90453,8.11017 -0.0312,0.0507 0.004,0.20561 0.0783,0.34434 0.0743,0.13873 0.15187,0.75073 0.1725,1.36001 0.35191,10.39742 0.36425,11.2213 0.22569,15.07577 -0.1392,3.87234 -0.32385,6.13423 -0.71688,8.78115 -0.10707,0.72106 -0.16037,1.36651 -0.11846,1.43433 0.0419,0.0678 0.009,0.1233 -0.0722,0.1233 -0.0906,0 -0.12471,0.12412 -0.0875,0.31869 0.0335,0.17527 0.021,0.34334 -0.0278,0.37349 -0.0488,0.0301 -0.096,0.24186 -0.10483,0.47049 -0.009,0.22864 -0.18885,1.06914 -0.3999,1.86779 -0.21105,0.79865 -0.46878,1.78163 -0.57271,2.1844 -0.10394,0.40278 -0.27652,0.90163 -0.38353,1.10856 -0.10702,0.20694 -0.16049,0.43141 -0.11882,0.49882 0.0417,0.0674 0.0227,0.12256 -0.0422,0.12256 -0.0649,0 -0.11794,0.13615 -0.11794,0.30256 0,0.16643 -0.0966,0.49315 -0.21473,0.72605 -0.1181,0.23292 -0.51573,1.19057 -0.88362,2.12812 -2.13331,5.43671 -5.23476,11.48942 -8.08762,15.78363 -6.69169,10.07251 -15.78189,18.3275 -26.62075,24.17482 -1.33169,0.71842 -2.61635,1.42987 -2.85482,1.581 -0.23847,0.15114 -0.53678,0.28258 -0.66291,0.29207 -0.12613,0.009 -0.22933,0.062 -0.22933,0.11668 0,0.0547 -0.0426,0.0878 -0.0947,0.0735 -0.17528,-0.0479 -1.04172,0.29683 -1.04172,0.41449 0,0.0641 -0.0426,0.10715 -0.0947,0.0958 -0.19506,-0.0427 -0.78918,0.17896 -0.78918,0.29439 0,0.066 -0.0568,0.0849 -0.12627,0.042 -0.0694,-0.0429 -0.12627,-0.0196 -0.12627,0.0517 0,0.0714 -0.0779,0.0999 -0.17312,0.0633 -0.0952,-0.0365 -0.25892,0.0194 -0.36377,0.12422 -0.10487,0.10486 -0.21626,0.16504 -0.24757,0.13373 -0.0313,-0.0313 -0.42161,0.0926 -0.86735,0.27524 -1.4705,0.60269 -4.56789,1.65182 -6.49254,2.19913 -1.04172,0.29624 -1.92245,0.57227 -1.95717,0.61339 -0.0347,0.0411 -0.29041,0.0889 -0.56817,0.10622 -0.27777,0.0173 -0.52411,0.0887 -0.54743,0.15863 -0.0233,0.0699 -0.0887,0.0985 -0.14538,0.0635 -0.0566,-0.035 -0.54896,0.0185 -1.09407,0.1188 -3.00664,0.55349 -6.861,0.92442 -10.58753,1.01888 -1.38896,0.0352 -3.20724,0.0812 -4.04061,0.10222 -0.83338,0.021 -3.10622,-0.002 -5.05076,-0.0512 l 0,-3.9e-4 z m 2.61369,-144.78852 c 0.60416,-0.0231 1.62694,-0.0232 2.27285,-2.5e-4 0.6459,0.023 0.15159,0.0419 -1.09847,0.042 -1.25007,1.3e-4 -1.77854,-0.0187 -1.17438,-0.0417 z m -5.89669,144.65638 c -2.69276,-0.16033 -5.28247,-0.44549 -8.5863,-0.94545 -0.20834,-0.0315 -0.57135,-0.0854 -0.80669,-0.11972 -0.23534,-0.0343 -0.47662,-0.0925 -0.53618,-0.1293 -0.0596,-0.0368 -0.22213,-0.0921 -0.36128,-0.12289 -0.13916,-0.0308 -0.36666,-0.0844 -0.50556,-0.11911 -0.586,-0.1465 -0.82797,-0.20576 -0.94701,-0.23191 -0.0695,-0.0153 -0.1973,-0.0721 -0.28411,-0.12633 -0.0868,-0.0542 -0.15784,-0.0599 -0.15784,-0.0125 0,0.0473 -0.0827,0.0174 -0.18387,-0.0665 -0.10113,-0.0839 -0.23833,-0.11895 -0.30489,-0.0778 -0.0666,0.0411 -0.14007,0.0261 -0.16336,-0.0335 -0.0233,-0.0595 -0.52533,-0.26603 -1.11564,-0.45886 -6.32799,-2.06705 -16.23692,-7.12558 -21.84455,-11.15166 -6.67811,-4.79466 -13.29424,-11.91903 -17.96496,-19.34498 -3.78432,-6.01667 -6.55532,-12.17105 -9.06795,-20.13992 -0.50363,-1.5973 -0.94862,-2.9326 -0.98884,-2.96732 -0.0402,-0.0347 -0.0839,-0.14837 -0.0971,-0.25254 -0.0131,-0.10417 -0.32179,-1.13556 -0.68586,-2.29198 l -0.66195,-2.10257 -2.02891,-0.0743 c -1.91242,-0.07 -10.68997,-0.20869 -40.66725,-0.64266 -7.01425,-0.10153 -15.99198,-0.24346 -19.95052,-0.31537 -10.47116,-0.19024 -29.25944,-0.37761 -49.91338,-0.49778 -9.95145,-0.0579 -18.12652,-0.13822 -18.16682,-0.17852 -0.0403,-0.0403 -0.0633,-17.07939 -0.0511,-37.86468 0.0211,-36.0481 -0.0791,-62.49776 -0.23441,-61.86974 -0.0397,0.16038 -0.0752,-2.16929 -0.0789,-5.17703 -0.009,-6.9662 -0.21675,-12.85265 -0.63524,-17.96927 -0.18177,-2.22234 -0.33418,-4.09743 -0.33869,-4.16688 -0.005,-0.079 -0.62698,-0.11492 -1.66032,-0.096 -0.90865,0.0166 -23.04524,0.0538 -49.1924,0.0827 -54.50089,0.0601 -67.28009,0.2008 -69.86044,0.76908 -1.63702,0.36052 -2.33146,0.95771 -2.88772,2.48331 -0.14806,0.40608 -0.29,0.73832 -0.31542,0.73832 -0.0254,0 -0.0417,-7.34412 -0.0362,-16.32028 0.005,-8.97615 0.0384,-16.23504 0.0731,-16.13087 0.0348,0.10417 0.095,0.27464 0.13383,0.37881 0.0389,0.10417 0.0873,0.27463 0.10762,0.3788 0.10247,0.52521 1.56652,5.97378 1.61938,6.02664 0.0665,0.0665 3.32052,0.14577 21.85778,0.53223 6.66701,0.13899 14.56514,0.3192 17.55141,0.40046 2.98626,0.0813 6.76486,0.12046 8.39689,0.0871 1.63203,-0.0334 2.56957,-0.0273 2.08344,0.0135 -2.99169,0.25123 50.95231,0.48788 60.04094,0.26341 3.22933,-0.0798 6.24085,-0.1479 6.69226,-0.15143 1.55086,-0.0121 5.11406,-0.25695 5.32164,-0.36564 1.04548,-0.54745 1.34454,-13.59515 1.36069,-59.36582 l 0.01,-28.12643 9.19955,0 9.19956,0 0.0814,43.84693 c 0.0448,24.11582 0.11785,54.73678 0.16239,68.04658 l 0.081,24.19965 1.90756,0.0779 c 1.04917,0.0428 6.33961,0.16082 11.75656,0.26223 5.41694,0.10141 10.59728,0.20906 11.51185,0.23926 l 1.66287,0.0549 0.28641,-0.71503 c 0.15752,-0.39328 0.66769,-1.49634 1.13373,-2.45125 0.46602,-0.95491 0.81051,-1.73707 0.7655,-1.73813 -0.045,-10e-4 -0.0178,-0.0437 0.0605,-0.0947 0.0783,-0.051 0.52612,-0.85985 0.9952,-1.7974 2.1267,-4.25052 4.5156,-7.57717 8.01354,-11.15922 3.56309,-3.64876 7.42673,-6.55516 12.06215,-9.07365 1.51521,-0.82324 4.51676,-2.24302 4.74194,-2.24302 0.0657,0 0.11942,-0.0568 0.11942,-0.12627 0,-0.0695 0.0426,-0.11572 0.0947,-0.10281 0.0521,0.0129 0.29357,-0.063 0.53664,-0.16871 0.24307,-0.10569 0.98174,-0.37995 1.6415,-0.60946 0.65976,-0.2295 1.29086,-0.51918 1.40246,-0.64371 1.07466,-1.19926 1.36884,-16.93621 1.37305,-73.44757 l 0.002,-32.35645 9.34391,0 9.34391,0 10e-4,3.31456 c 0.003,10.67515 0.53727,32.74718 0.79974,33.00966 0.63002,0.63002 35.09967,1.47431 47.87621,1.17266 8.32578,-0.19657 9.23467,-0.51269 9.83537,-3.42087 0.40409,-1.95631 0.4884,-4.26139 0.51205,-13.99923 0.0227,-9.35141 -0.0267,-12.01228 -0.3047,-16.41498 l -0.13156,-2.08344 -0.53616,-0.50787 c -0.29537,-0.27934 -0.70711,-0.63267 -0.91545,-0.78518 l -0.37881,-0.27731 10.32994,-0.004 c 6.61433,-0.003 10.30284,0.0399 10.25456,0.118 -0.0415,0.0671 -0.0722,13.07912 -0.0682,28.91561 l 0.007,28.79362 -4.26396,-2.5e-4 c -11.20953,-7.6e-4 -72.89288,0.46499 -72.97895,0.55104 -0.14354,0.14355 -0.42242,27.10063 -0.35418,34.23638 0.0425,4.44467 0.0741,8.33692 0.0702,8.64943 -0.0107,0.86216 0.24244,2.38146 0.52098,3.12591 0.40497,1.08238 1.83799,2.34378 3.76512,3.31416 0.31252,0.15736 0.59663,0.32834 0.63135,0.37995 0.0347,0.0516 0.85863,0.49184 1.8309,0.97829 5.07958,2.54144 8.93834,5.25691 12.51368,8.80607 2.65249,2.63307 4.4683,4.94853 6.31079,8.04728 4.80289,8.07762 6.70128,18.25736 5.281,28.31821 -1.17315,8.31033 -5.26702,16.16256 -11.85113,22.73106 -6.60113,6.58548 -14.77505,10.54813 -24.2499,11.75618 -2.1253,0.27098 -7.3869,0.30665 -9.34391,0.0634 -7.88375,-0.98011 -14.43835,-3.4854 -20.51872,-7.84266 -2.6795,-1.92013 -5.99306,-5.07695 -8.05299,-7.672 -2.16478,-2.72716 -4.29911,-6.27587 -5.59308,-9.29949 -0.35988,-0.84092 -0.7043,-1.548 -0.76538,-1.5713 -0.0611,-0.0233 -0.0833,-0.0872 -0.0495,-0.14201 0.0339,-0.0548 -0.13934,-0.60397 -0.38492,-1.22034 -0.61052,-1.53229 -1.44948,-3.84037 -1.51485,-4.16754 -0.0296,-0.14792 -0.12952,-0.44919 -0.22214,-0.66948 l -0.16842,-0.40053 -13.61764,0.008 c -7.4897,0.004 -13.63011,0.0215 -13.64535,0.0381 -0.0153,0.0166 0.0217,4.63268 0.0821,10.25796 0.28391,26.43986 0.48223,50.45858 0.41802,50.62591 -0.0614,0.15997 0.51218,0.18565 4.26489,0.19098 4.23459,0.006 30.06612,0.12869 81.72974,0.38819 14.09299,0.0708 25.66312,0.0849 25.71139,0.0313 0.0483,-0.0536 0.26523,-0.92131 0.48212,-1.9283 0.21688,-1.007 0.5398,-2.39912 0.7176,-3.0936 0.1778,-0.69448 0.34055,-1.34792 0.36168,-1.45209 0.0211,-0.10417 0.0768,-0.27842 0.12371,-0.38723 0.0469,-0.10879 0.0974,-0.36449 0.11223,-0.56821 0.0148,-0.20371 0.0627,-0.3988 0.10635,-0.43352 0.0437,-0.0347 0.26359,-0.71658 0.4887,-1.51523 0.64643,-2.29348 1.91788,-6.06353 2.81059,-8.33376 4.09488,-10.41374 9.45846,-18.81322 16.57182,-25.95184 5.67005,-5.69019 11.85971,-10.07161 19.49585,-13.80038 1.50013,-0.73251 2.74656,-1.37853 2.76985,-1.43559 0.0233,-0.0571 0.0901,-0.0743 0.14838,-0.0382 0.1317,0.0814 0.75629,-0.19345 0.75629,-0.33279 0,-0.0561 0.0779,-0.0722 0.17313,-0.0356 0.0952,0.0365 0.25198,-0.0124 0.34836,-0.10881 0.0964,-0.0964 0.23917,-0.15394 0.3173,-0.12789 0.0781,0.026 0.21967,-0.0262 0.31454,-0.11613 0.0949,-0.0899 0.28614,-0.18336 0.42503,-0.20765 0.1389,-0.0243 0.29429,-0.10954 0.34531,-0.18941 0.051,-0.0799 0.0936,-0.0956 0.0947,-0.0351 0.001,0.0606 0.0872,0.0394 0.19134,-0.047 0.10417,-0.0865 0.1894,-0.11529 0.1894,-0.0641 0,0.0512 0.14206,3e-5 0.31568,-0.11372 0.17362,-0.11377 0.31567,-0.17016 0.31567,-0.12534 0,0.0448 0.0852,0.0107 0.1894,-0.0757 0.10417,-0.0865 0.18941,-0.11529 0.18941,-0.0641 0,0.0512 0.14205,4e-5 0.31567,-0.11372 0.17362,-0.11377 0.31567,-0.17016 0.31567,-0.12533 0,0.0448 0.0852,0.0107 0.1894,-0.0757 0.10418,-0.0865 0.18941,-0.11487 0.18941,-0.0631 0,0.0517 0.071,0.037 0.15783,-0.0326 0.26273,-0.21091 4.3747,-1.51674 6.04382,-1.91932 1.67085,-0.403 2.36654,-0.52532 2.92129,-0.51361 0.19098,0.004 0.34724,-0.0362 0.34724,-0.0894 0,-0.0532 0.24149,-0.0986 0.53664,-0.10096 0.29516,-0.002 1.61625,-0.0843 2.93576,-0.18209 1.74011,-0.12901 4.75764,-0.17585 10.98541,-0.17058 8.11589,0.007 11.1018,0.0994 13.57392,0.42073 0.52086,0.0677 1.23112,0.15458 1.57836,0.19309 0.69614,0.0772 4.0238,0.89097 4.34398,1.06233 0.11094,0.0594 0.24433,0.11357 0.29641,0.12041 0.20655,0.0272 0.36198,0.0767 0.76821,0.2449 0.19682,0.0815 0.4099,0.11599 0.47351,0.0767 0.0636,-0.0393 0.11568,-0.005 0.11568,0.0758 0,0.081 0.0815,0.11593 0.18124,0.0777 0.0997,-0.0383 0.19913,-0.0234 0.22097,0.0331 0.0218,0.0565 0.93612,0.42538 2.03172,0.81981 8.7329,3.14403 16.99937,8.07166 24.20884,14.4309 2.0836,1.83787 6.03351,5.8806 7.74856,7.93063 5.76669,6.89301 10.211,14.52806 13.33942,22.91629 0.40146,1.07644 0.80175,2.19866 0.8895,2.49381 0.0878,0.29515 0.21076,0.53664 0.27331,0.53664 0.0626,0 0.0816,0.0521 0.0422,0.11568 -0.0393,0.0636 -0.006,0.27669 0.075,0.47351 0.0806,0.1968 0.16687,0.47147 0.19178,0.61037 0.0249,0.1389 0.0816,0.33777 0.12604,0.44194 0.0444,0.10417 0.0987,0.24623 0.12068,0.31567 0.66398,2.09894 1.33437,5.3037 1.31407,6.28189 -0.004,0.19098 0.0363,0.34724 0.0895,0.34724 0.0532,0 0.0977,0.2699 0.0989,0.59978 0.001,0.32988 0.0787,1.70779 0.17216,3.06202 0.21492,3.11281 0.23285,12.96848 0.0286,15.7205 -0.1929,2.59885 -0.5741,5.74463 -0.90206,7.44406 -0.14209,0.73633 -0.22423,1.39399 -0.18252,1.46149 0.0417,0.0675 0.009,0.12269 -0.0726,0.12269 -0.0863,0 -0.1208,0.10575 -0.0824,0.25241 0.0363,0.13884 0.0106,0.28663 -0.057,0.32845 -0.0677,0.0418 -0.0932,0.1537 -0.0568,0.24862 0.0364,0.0949 0.008,0.20857 -0.0631,0.25253 -0.0712,0.044 -0.0996,0.15762 -0.0631,0.25254 0.0364,0.0949 0.008,0.20857 -0.0631,0.25254 -0.0711,0.044 -0.0996,0.15762 -0.0631,0.25254 0.0364,0.0949 0.008,0.20857 -0.0631,0.25254 -0.0711,0.044 -0.10027,0.15576 -0.0647,0.24842 0.0356,0.0927 0.012,0.18636 -0.0524,0.2082 -0.0643,0.0218 -0.13877,0.21019 -0.16538,0.41853 -0.0266,0.20835 -0.11322,0.53984 -0.19247,0.73665 -0.0793,0.19681 -0.11194,0.40989 -0.0726,0.4735 0.0393,0.0636 0.0217,0.11568 -0.0392,0.11568 -0.14796,0 -0.5702,1.35705 -0.47179,1.5163 0.0426,0.0689 0.025,0.1252 -0.0391,0.1252 -0.064,0 -0.30286,0.52559 -0.53072,1.16799 -1.31749,3.7144 -4.6036,10.60122 -6.77864,14.20619 -4.67128,7.74235 -10.68803,14.52328 -17.84292,20.1091 -3.72317,2.90669 -8.19171,5.73217 -12.38031,7.82811 -0.72594,0.36325 -1.33893,0.71083 -1.36223,0.7724 -0.0233,0.0616 -0.0878,0.0838 -0.14338,0.0495 -0.0556,-0.0344 -0.60396,0.16991 -1.21863,0.45389 -3.64446,1.68373 -9.58457,3.67753 -13.14069,4.41065 -2.51497,0.51849 -5.78345,0.90356 -9.57234,1.12777 -2.50557,0.14827 -11.57707,0.1403 -14.14214,-0.0124 l -10e-6,-8e-5 z m -153.21931,34.9157 c -3.11566,-1.31214 -7.30063,-3.3967 -9.29995,-4.63235 -5.18332,-3.20347 -12.30032,-11.46109 -15.24776,-17.69149 l -2.5248,-5.337 -16.87518,-0.66554 c -9.28134,-0.36605 -31.27546,-0.66554 -48.87582,-0.66554 l -32.00066,0 -0.66797,-30.46912 c -0.36738,-16.75803 -0.66796,-37.43518 -0.66796,-45.94924 l 0,-15.48012 -7.22937,-3.64065 c -17.65306,-8.88994 -26.55889,-25.66573 -23.90955,-45.03809 1.71631,-12.54993 11.43757,-25.29073 23.97972,-31.42812 6.37671,-3.12038 7.15947,-3.25567 18.77595,-3.24511 11.04878,0.0101 12.64085,0.25318 17.98497,2.74656 7.66777,3.5775 17.73799,13.29411 21.48815,20.73361 2.56371,5.08582 2.96838,7.11446 3.27342,16.40984 0.29028,8.84544 2.7e-4,11.52911 -1.7466,16.16244 -4.21327,11.17511 -14.39387,21.28035 -25.59511,25.40565 l -5.80838,2.13917 0,34.71491 0,34.71491 38.63833,-0.004 38.63834,-0.004 3.5099,-6.81479 c 9.63667,-18.71046 30.07265,-28.13255 49.84676,-22.98204 8.17352,2.12893 13.35263,5.00568 19.53005,10.84803 6.23965,5.90121 9.58986,11.23827 11.85587,18.88708 5.76312,19.45309 -4.26678,40.85975 -23.35174,49.8393 -6.10838,2.87402 -7.98071,3.25228 -17.44921,3.52519 -9.29377,0.26788 -11.30775,0.0104 -16.2714,-2.08001 l 0,6e-4 z M 288.02602,354.83307 c -6.19617,-1.45462 -15.74678,-7.02431 -20.92604,-12.20357 -11.35001,-11.35002 -14.84284,-28.88803 -8.91084,-44.74271 3.13352,-8.37511 13.23878,-18.80595 22.316,-23.03503 l 6.89687,-3.21325 0,-39.0778 0,-39.0778 -6.55825,-0.70233 c -3.60703,-0.38628 -31.13009,-0.5279 -61.16234,-0.31471 -46.84247,0.33253 -54.74081,0.60042 -55.56587,1.88462 -0.52897,0.82335 -0.84824,7.86096 -0.7095,15.63913 l 0.25227,14.14214 12.84787,0.28248 12.84786,0.28248 2.46351,-3.90245 c 11.5273,-18.26041 37.16886,-21.958 53.0783,-7.65405 3.14782,2.83017 6.26921,6.99573 8.23643,10.99173 2.92576,5.94307 3.1395,7.07601 2.7985,14.83391 -0.44496,10.12316 -2.75414,15.48743 -9.71125,22.55941 -7.22968,7.34904 -13.92071,10.09361 -24.47745,10.0403 -13.92547,-0.0703 -23.48301,-5.67593 -30.69025,-18.00018 l -3.92122,-6.7052 -22.07372,0 -22.07371,0 -0.26904,-27.02158 -0.26903,-27.02158 -13.13199,-0.30674 c -7.22259,-0.1687 -15.02104,-0.0336 -17.32988,0.30015 -3.91523,0.56602 -4.38702,0.9948 -7.00639,6.36765 -3.6156,7.41633 -12.494305,16.27434 -19.736006,19.69001 -12.147478,5.72957 -27.13673,5.74651 -38.885654,0.044 -7.560753,-3.66974 -16.468838,-12.55863 -20.190946,-20.14744 -2.723599,-5.55299 -2.917139,-6.75183 -2.917139,-18.06942 0,-11.77027 0.09749,-12.30861 3.361395,-18.56179 8.731249,-16.72783 26.663013,-26.04629 45.097777,-23.43561 14.542326,2.05945 27.484793,11.44945 33.683743,24.43818 l 3.16366,6.62885 22.91734,0.66696 c 12.60453,0.36683 45.72585,0.66696 73.60293,0.66696 27.87708,0 62.35083,0.30016 76.60835,0.66703 l 25.92275,0.66703 0.006,41.00176 c 0.003,22.55097 0.29749,44.74539 0.65368,49.32091 l 0.64762,8.31917 8.30324,4.019 c 9.6325,4.6624 16.82611,11.73052 21.35051,20.97805 3.97313,8.12081 4.61141,22.27887 1.38998,30.83218 -6.65597,17.67242 -23.13586,29.22585 -41.29633,28.95131 -3.69166,-0.0559 -8.47687,-0.51576 -10.63379,-1.02212 z m 268.73937,222.76981 c -8.11372,-1.96437 -21.25838,-8.56986 -27.93693,-14.03896 -11.56168,-9.46791 -19.48767,-21.50766 -24.28634,-36.89148 l -2.67831,-8.58629 -38.79306,-0.61391 c -21.33619,-0.33765 -50.7255,-0.67857 -65.30958,-0.75762 l -26.5165,-0.1437 -0.006,-55.30585 c -0.003,-30.41822 -0.298,-59.05605 -0.65481,-63.63961 l -0.64874,-8.33376 -58.18659,0.0111 c -32.00262,0.006 -59.89604,0.29365 -61.98536,0.63898 -3.58467,0.59248 -3.88924,0.93901 -5.40351,6.14791 -11.95999,41.1409 -54.36624,63.30252 -94.45339,49.36159 -30.10796,-10.4705 -50.556142,-41.5936 -48.04472,-73.12633 0.86047,-10.8039 3.00655,-18.4706 7.97501,-28.49013 5.56054,-11.21352 18.89499,-24.96194 29.57816,-30.4964 12.5221,-6.48712 20.39746,-8.34048 35.35534,-8.32037 12.06763,0.0163 13.84928,0.27058 21.98214,3.13834 12.33234,4.34854 19.11702,8.63282 28.50671,18.00092 11.35438,11.3283 16.08086,20.11758 20.6901,38.47506 l 1.03698,4.13004 31.06717,0.66641 c 38.95671,0.83565 89.48243,0.867 91.59372,0.0568 1.44013,-0.55263 1.59785,-9.31115 1.59785,-88.73371 0,-48.4663 -0.29638,-94.30034 -0.65862,-101.85341 l -0.65861,-13.73286 -5.14977,-1.19873 c -9.4093,-2.19024 -20.48333,-7.00545 -27.5915,-11.99732 -19.11645,-13.42496 -30.38758,-33.81508 -31.38503,-56.777317 -0.59878,-13.784433 1.40545,-23.368742 7.56756,-36.188343 3.93958,-8.195872 5.91569,-10.875459 13.81153,-18.728294 11.07111,-11.010813 20.82698,-16.534961 35.77034,-20.254552 12.35688,-3.075782 19.3836,-3.075782 31.74048,0 14.98443,3.729811 24.72574,9.231817 35.76819,20.202281 7.87671,7.825358 9.88509,10.54301 13.8554,18.748419 6.53938,13.514914 8.07029,20.89255 7.44127,35.860415 -0.36832,8.764201 -1.12572,13.938651 -2.73443,18.680991 -8.87318,26.15739 -28.09459,43.40104 -56.31498,50.52052 l -4.29706,1.08406 0.25645,126.48163 0.25645,126.48165 13.82459,0.28062 13.82459,0.28062 3.09266,-6.48006 c 5.29463,-11.0939 15.73695,-19.94191 28.60462,-24.23732 1.67106,-0.55782 1.76777,-7.52671 1.76777,-127.39595 l 0,-126.80585 51.77031,-0.005 c 28.47368,-0.003 56.16558,-0.29631 61.53755,-0.65206 l 9.76723,-0.64683 2.17926,-5.97683 c 3.05543,-8.37983 12.85045,-18.67744 21.45682,-22.55781 11.63372,-5.245324 28.45725,-4.363179 38.14674,2.00023 19.18328,12.59829 25.39312,35.08924 15.19583,55.03651 -3.17102,6.20294 -11.60498,14.32245 -18.22629,17.54674 -10.74626,5.23299 -25.60343,5.23532 -36.36549,0.006 -7.52544,-3.65684 -16.11823,-12.4724 -19.2333,-19.73192 l -2.48498,-5.79115 -52.67876,-0.0173 -52.67874,-0.0173 -0.68318,12.37436 c -0.94183,17.0593 -0.22347,151.91503 0.81477,152.95458 0.46205,0.46262 13.24483,0.98112 28.40615,1.15219 24.39555,0.27526 27.75536,0.12173 29.21194,-1.33485 1.38259,-1.38259 1.64588,-4.20662 1.64588,-17.65355 0,-8.80421 -0.272,-16.71649 -0.60444,-17.58282 -0.33245,-0.86634 -3.87768,-3.14952 -7.87827,-5.07374 -9.1476,-4.39981 -16.71418,-12.14525 -21.06271,-21.56059 -2.78979,-6.04041 -3.1409,-7.8287 -3.12126,-15.89739 0.0351,-14.40117 5.03924,-24.7192 16.04418,-33.08133 7.81771,-5.94031 13.99952,-7.82985 25.61605,-7.82985 9.34533,0 10.34675,0.20954 17.06561,3.57085 16.60444,8.30686 25.74896,25.74142 22.73387,43.34341 -2.49881,14.58792 -10.26668,24.77832 -23.87848,31.32533 l -7.74196,3.72329 0,28.70686 0,28.70686 -38.63833,0.26455 -38.63834,0.26454 -0.29531,21.2132 c -0.16243,11.66726 -0.0463,22.59423 0.25816,24.28216 0.46609,2.58444 1.60027,3.58516 7.18404,6.33864 17.11972,8.44211 25.77515,24.38214 23.66711,43.58587 -0.88509,8.06299 -4.57892,15.70966 -10.80316,22.36388 -20.94785,22.39495 -58.56039,14.61976 -69.09925,-14.28407 l -2.19499,-6.01996 -14.02138,0 -14.02138,0 0.26713,31.06219 0.26714,31.06219 56.29463,0.26101 56.29464,0.261 0.60336,-2.78638 c 6.52963,-30.15396 23.36831,-49.84135 50.45208,-58.98738 6.15815,-2.07957 8.96211,-2.3859 21.71828,-2.37268 13.4247,0.0139 15.3217,0.25134 22.72843,2.84453 22.01544,7.70789 39.3739,25.5231 46.7544,47.98465 2.11609,6.44005 2.55895,9.78622 2.62925,19.86632 0.0993,14.23389 -1.46545,21.26605 -7.41732,33.33503 -9.35519,18.97011 -27.09244,33.2353 -47.58671,38.27162 -8.20658,2.01671 -26.36075,2.03344 -34.62799,0.0319 l 0,-10e-6 z M 685.3827,733.74631 q -17.2602,0 -23.9166,3.9474 -6.6564,3.9474 -6.6564,13.4676 0,7.5852 4.9536,12.0744 5.031,4.4118 13.6224,4.4118 11.8422,0 18.963,-8.3592 7.1982,-8.4366 7.1982,-22.3686 l 0,-3.1734 -14.1642,0 z m 28.4058,-5.8824 0,49.4586 -14.2416,0 0,-13.158 q -4.8762,7.8948 -12.1518,11.6874 -7.2756,3.7152 -17.802,3.7152 -13.3128,0 -21.2076,-7.4304 -7.8174,-7.5078 -7.8174,-20.0466 0,-14.6286 9.7524,-22.059 9.8298,-7.4304 29.2572,-7.4304 l 19.9692,0 0,-1.3932 q 0,-9.8298 -6.5016,-15.1704 -6.4242,-5.418 -18.1116,-5.418 -7.4304,0 -14.4738,1.7802 -7.0434,1.7802 -13.545,5.3406 l 0,-13.158 q 7.8174,-3.0186 15.1704,-4.4892 7.353,-1.548 14.319,-1.548 18.8082,0 28.0962,9.7524 9.288,9.7524 9.288,29.5668 z m -115.9452,-61.8427 0,24.6133 29.3346,0 0,11.0682 -29.3346,0 0,47.0592 q 0,10.6038 2.8638,13.6224 2.9412,3.0186 11.8422,3.0186 l 14.6286,0 0,11.9196 -14.6286,0 q -16.4862,0 -22.7556,-6.1146 -6.2694,-6.192 -6.2694,-22.446 l 0,-47.0592 -10.4491,0 0,-11.0682 10.4491,0 0,-24.6133 14.319,0 z m -71.9047,67.7251 q -17.2602,0 -23.9166,3.9474 -6.6564,3.9474 -6.6564,13.4676 0,7.5852 4.9536,12.0744 5.031,4.4118 13.6224,4.4118 11.8422,0 18.963,-8.3592 7.1982,-8.4366 7.1982,-22.3686 l 0,-3.1734 -14.1642,0 z m 28.4058,-5.8824 0,49.4586 -14.2416,0 0,-13.158 q -4.8762,7.8948 -12.1518,11.6874 -7.2756,3.7152 -17.802,3.7152 -13.3128,0 -21.2076,-7.4304 -7.8174,-7.5078 -7.8174,-20.0466 0,-14.6286 9.7524,-22.059 9.8298,-7.4304 29.2572,-7.4304 l 19.9692,0 0,-1.3932 q 0,-9.8298 -6.5016,-15.1704 -6.4242,-5.418 -18.1116,-5.418 -7.4304,0 -14.4738,1.7802 -7.0434,1.7802 -13.545,5.3406 l 0,-13.158 q 7.8174,-3.0186 15.1704,-4.4892 7.353,-1.548 14.319,-1.548 18.8082,0 28.0962,9.7524 9.288,9.7524 9.288,29.5668 z m -173.5308,-53.2512 0,89.8614 18.8856,0 q 23.9166,0 34.9848,-10.836 11.1456,-10.836 11.1456,-34.2108 0,-23.22 -11.1456,-33.9786 -11.0682,-10.836 -34.9848,-10.836 l -18.8856,0 z m -15.6348,-12.8485 32.121,0 q 33.5916,0 49.3038,14.0095 15.7122,13.932 15.7122,43.6536 0,29.8764 -15.7896,43.8858 -15.7896,14.0094 -49.2264,14.0094 l -32.121,0 0,-115.5583 z m -63.9325,38.8549 q -11.4552,0 -18.1116,8.9784 -6.6564,8.901 -6.6564,24.4584 0,15.5574 6.579,24.5358 6.6564,8.901 18.189,8.901 11.3778,0 18.0342,-8.9784 6.6564,-8.9784 6.6564,-24.4584 0,-15.4026 -6.6564,-24.381 -6.6564,-9.0558 -18.0342,-9.0558 z m 0,-12.0744 q 18.576,0 29.1798,12.0744 10.6038,12.0744 10.6038,33.4368 0,21.285 -10.6038,33.4368 -10.6038,12.0744 -29.1798,12.0744 -18.6534,0 -29.2572,-12.0744 -10.5264,-12.1518 -10.5264,-33.4368 0,-21.3624 10.5264,-33.4368 10.6038,-12.0744 29.2572,-12.0744 z m -77.5548,-31.6567 14.2416,0 0,120.4345 -14.2416,0 0,-120.4345 z m -57.8178,76.8583 q -17.2602,0 -23.9166,3.9474 -6.6564,3.9474 -6.6564,13.4676 0,7.5852 4.9536,12.0744 5.031,4.4118 13.6224,4.4118 11.8422,0 18.963,-8.3592 7.1982,-8.4366 7.1982,-22.3686 l 0,-3.1734 -14.1642,0 z m 28.4058,-5.8824 0,49.4586 -14.2416,0 0,-13.158 q -4.8762,7.8948 -12.1518,11.6874 -7.2756,3.7152 -17.802,3.7152 -13.3128,0 -21.2076,-7.4304 -7.8174,-7.5078 -7.8174,-20.0466 0,-14.6286 9.7524,-22.059 9.8298,-7.4304 29.2572,-7.4304 l 19.9692,0 0,-1.3932 q 0,-9.8298 -6.5016,-15.1704 -6.4242,-5.418 -18.1116,-5.418 -7.4304,0 -14.4738,1.7802 -7.0434,1.7802 -13.545,5.3406 l 0,-13.158 q 7.8174,-3.0186 15.1704,-4.4892 7.353,-1.548 14.319,-1.548 18.8082,0 28.0962,9.7524 9.288,9.7524 9.288,29.5668 z m -133.3603,49.4586 -44.118,-115.5583 16.3314,0 36.6102,97.2919 36.6876,-97.2919 16.2541,0 -44.0407,115.5583 -17.7246,0 z m 500.4716,-198.299 c -7.3356,-1.3232 -12.129,-2.9342 -19.4621,-6.5408 -8.2199,-4.0429 -13.2086,-7.6474 -19.8023,-14.3076 -9.7493,-9.8477 -16.5408,-22.479 -19.4671,-36.2059 -0.389,-1.8247 -0.9856,-3.499 -1.3258,-3.7207 -0.3402,-0.2218 -29.8546,-0.532 -65.5876,-0.6895 l -64.9689,-0.2862 -0.1457,-63.196 c -0.1139,-49.4202 -0.301,-63.384 -0.8586,-64.0576 -0.6305,-0.7617 -7.7677,-0.8146 -61.6738,-0.4575 -33.5286,0.2222 -61.1612,0.6042 -61.406,0.849 -0.2447,0.2447 -1.0652,2.7439 -1.823,5.5536 -7.4383,27.5743 -30.167,48.3811 -58.1464,53.2295 -8.2623,1.4318 -22.4093,0.9267 -30.0293,-1.0722 -16.9729,-4.4522 -30.7494,-13.4801 -40.6594,-26.6447 -22.2473,-29.5537 -19.3934,-70.4327 6.7224,-96.2908 7.3731,-7.3003 15.1571,-12.3913 24.6641,-16.131 8.229,-3.2371 14.2545,-4.453 23.9393,-4.8308 9.6939,-0.3781 16.8848,0.5692 25.3752,3.343 25.3131,8.2696 44.3469,29.7465 49.2447,55.5653 0.491,2.5888 1.1578,4.9721 1.4816,5.296 0.6867,0.687 119.6621,1.4163 121.7407,0.7463 l 1.288,-0.4151 0,-101.2613 c 0,-80.3369 -0.1479,-101.3739 -0.7156,-101.806 -0.3935,-0.2996 -2.905,-0.996 -5.581,-1.5475 -29.9321,-6.1691 -52.4278,-29.212 -58.1675,-59.58248 -1.2805,-6.77572 -1.2757,-18.8327 0.01,-25.94319 2.6885,-14.86319 9.9072,-28.60547 20.6505,-39.31198 10.1069,-10.07233 23.1079,-17.12606 36.9214,-20.03181 2.2519,-0.47371 4.8656,-0.8613 5.8081,-0.8613 0.9424,0 1.5755,-0.2234 1.4067,-0.49644 -0.1687,-0.27304 1.5548,-0.63014 3.8301,-0.79355 4.8539,-0.34863 13.0915,0.12135 12.718,0.72559 -0.1424,0.23048 1.3067,0.59618 3.2202,0.81268 8.4566,0.95675 20.6551,5.7028 29.2597,11.38401 6.2415,4.12092 14.9961,12.61542 19.2785,18.70565 6.019,8.55985 10.8995,20.20465 12.7151,30.33793 1.1034,6.15851 0.9614,20.27353 -0.2666,26.48838 -3.8093,19.27902 -15.5275,36.92851 -31.5079,47.45591 -8.5505,5.6327 -16.6239,8.9842 -27.5423,11.4335 l -3.4345,0.7705 0,126.2172 0,126.2172 13.9446,0 13.9446,0 1.2922,-3.5686 c 2.0596,-5.6881 4.8117,-9.8168 10.029,-15.0454 5.2124,-5.2237 9.9107,-8.1253 17.0633,-10.5381 l 3.8298,-1.2919 0.2862,-127.0228 0.2862,-127.0228 61.0372,-0.1457 c 47.8871,-0.1143 61.1588,-0.2993 61.6014,-0.8586 0.3103,-0.3921 1.1172,-2.399 1.7929,-4.45971 1.92,-5.85434 5.0617,-10.70885 10.363,-16.01282 3.8287,-3.83058 5.9183,-5.39855 9.74,-7.3086 7.345,-3.671 13.026,-4.89636 21.1395,-4.55974 7.6914,0.3191 13.4866,1.93131 19.5018,5.42536 4.5612,2.64947 12.2054,10.19543 14.8057,14.61542 5.3335,9.06579 7.1329,20.87459 4.7181,30.96429 -5.3314,22.2762 -26.9156,36.1118 -49.1662,31.5158 -13.9448,-2.8804 -24.992,-12.0853 -30.4308,-25.356 l -1.5513,-3.7852 -51.9823,-0.1462 c -37.932,-0.1066 -52.1926,0.028 -52.7601,0.4994 -1.0803,0.8966 -1.1701,163.5945 -0.091,164.6737 0.5159,0.5158 7.7804,0.6869 29.173,0.6869 27.5775,0 28.5049,-0.035 29.0786,-1.1072 0.9111,-1.7024 0.7979,-35.0492 -0.1229,-36.212 -0.3936,-0.4969 -2.1323,-1.3481 -3.8638,-1.8914 -12.5852,-3.9491 -22.6849,-14.5623 -26.9825,-28.3544 -1.8688,-5.9976 -1.8737,-16.0178 -0.011,-22.5644 4.0514,-14.2383 14.156,-24.4453 28.7309,-29.022 3.6555,-1.1479 5.3894,-1.3335 12.0005,-1.285 6.8097,0.05 8.2715,0.2412 12.3069,1.6104 7.2346,2.4547 11.4915,5.1231 16.8862,10.5852 8.3523,8.4567 12.0206,17.3822 12.0206,29.2477 0,12.9082 -5.0684,23.9458 -14.7998,32.2299 -3.3471,2.8493 -12.5458,7.8391 -14.4514,7.8391 -0.5977,0 -1.6018,0.5151 -2.2315,1.1448 -1.1139,1.114 -1.1448,1.908 -1.1448,29.4793 l 0,28.3344 -38.2905,0 c -34.3878,0 -38.3259,0.092 -38.6379,0.9055 -0.1911,0.498 -0.3474,11.1386 -0.3474,23.6457 0,17.3216 0.1704,22.9589 0.7155,23.6574 0.3935,0.5044 2.6966,1.7305 5.118,2.7247 11.6295,4.7749 20.1547,14.1113 24.3153,26.6288 1.3194,3.9696 1.5282,5.5702 1.568,12.0207 0.05,8.1537 -0.9425,12.6463 -4.233,19.1557 -10.0919,19.9637 -34.3885,28.558 -54.8717,19.4093 -10.3652,-4.6295 -19.1349,-14.3166 -22.4759,-24.8271 -0.7005,-2.2038 -1.5233,-4.3335 -1.8285,-4.7327 -0.426,-0.5574 -3.6264,-0.6903 -13.7847,-0.5725 l -13.2299,0.1535 -0.1481,30.4068 c -0.1225,25.1515 -0.013,30.5191 0.6345,31.0563 0.5745,0.4768 15.5296,0.6107 56.2349,0.5036 l 55.4523,-0.146 1.2049,-5.8214 c 1.525,-7.3677 3.2231,-12.426 6.1166,-18.22 9.9921,-20.0088 26.59,-33.3661 48.5083,-39.0375 6.7496,-1.7464 19.6364,-2.4017 26.9513,-1.3704 31.0216,4.3735 55.765,27.7003 61.9877,58.439 4.7301,23.365 -2.92,48.5313 -19.9316,65.569 -6.1999,6.2095 -11.3833,9.9631 -18.9212,13.7019 -7.4724,3.7063 -12.9828,5.5559 -20.2935,6.8117 -6.6416,1.1409 -19.1619,1.1387 -25.4996,-0.01 z m -141.7719,37.6104 c -13.9926,-2.7884 -26.4778,-13.1584 -31.9662,-26.5506 l -1.5512,-3.7852 -49.1826,-0.2862 -49.1826,-0.2862 -0.2862,-46.017 c -0.2497,-40.1421 -0.3959,-46.0711 -1.1449,-46.4401 -0.4722,-0.2328 -3.5632,-1.7304 -6.8689,-3.3281 -11.6216,-5.6168 -19.5077,-15.0121 -22.9977,-27.3987 -1.6496,-5.8547 -1.7502,-15.8519 -0.215,-21.3506 4.4287,-15.8628 16.7191,-27.7187 32.6807,-31.5256 4.2334,-1.0097 6.2774,-1.1737 11.7113,-0.9396 7.9673,0.3432 11.7705,1.3091 18.8681,4.7918 4.5785,2.2466 6.2182,3.4636 10.6,7.8673 5.8061,5.8353 8.7325,10.4095 11.0233,17.2302 1.3849,4.1238 1.5389,5.4052 1.5478,12.8794 0.011,9.2039 -0.6136,12.1655 -3.9831,18.8899 -5.374,10.7245 -14.4728,18.4752 -26.1785,22.2996 l -3.8638,1.2624 0,34.2369 c 0,30.6916 0.094,34.2729 0.9054,34.5844 1.3043,0.5005 75.3928,0.4123 76.1198,-0.091 0.3344,-0.2313 1.202,-1.903 1.928,-3.7149 6.0577,-15.1177 19.4034,-25.2498 36.0744,-27.3878 8.8781,-1.1385 20.0583,1.209 27.9043,5.8592 4.5077,2.6717 11.1428,9.0687 14.2428,13.7318 12.1707,18.3073 8.0054,43.115 -9.5449,56.8472 -10.2723,8.0375 -23.7068,11.1985 -36.6403,8.6211 z M 291.0907,355.90641 c -5.308,-0.9634 -7.6381,-1.7413 -12.5131,-4.1777 -10.4551,-5.225 -18.0405,-13.9302 -21.8096,-25.029 -1.2277,-3.6149 -1.6107,-5.9851 -1.8191,-11.2545 -0.3368,-8.5181 0.7311,-13.7259 4.3241,-21.0869 2.2502,-4.61 3.4424,-6.2222 7.8312,-10.5897 6.2429,-6.2127 10.6869,-8.9527 19.3441,-11.9267 0.9409,-0.3233 1.0018,-2.7083 1.0018,-39.225 0,-34.9262 -0.092,-38.9162 -0.9055,-39.2283 -1.3723,-0.5267 -121.1967,-0.3986 -122.0301,0.1304 -0.5619,0.3566 -0.6908,3.8674 -0.5724,15.5895 l 0.1528,15.1292 12.4573,0.1543 12.4574,0.1543 1.5667,-2.6759 c 8.7515,-14.9458 26.3713,-21.8064 42.3065,-16.4728 8.6089,2.8814 16.782,9.8809 20.4035,17.4737 2.8592,5.9943 3.4586,8.6029 3.4706,15.1043 0.012,6.4715 -0.9739,10.5795 -3.8455,16.0239 -2.272,4.3073 -8.447,10.8603 -12.5829,13.3528 -17.7962,10.7255 -40.9314,4.0524 -50.2705,-14.4998 l -2.5904,-5.1459 -22.276,-0.2862 -22.276,-0.2862 -0.3004,-26.9034 c -0.1652,-14.7969 -0.3584,-26.9679 -0.4293,-27.0466 -0.071,-0.079 -7.559,-0.1431 -16.6402,-0.1431 -18.5598,0 -17.3394,-0.2878 -19.2086,4.5298 -2.3381,6.026 -9.1249,14.3745 -14.9121,18.3433 -3.79,2.5992 -9.1263,5.0798 -13.8795,6.4522 -5.8066,1.6765 -17.3341,1.7868 -23.0347,0.2204 -15.9724,-4.389 -28.0347,-16.621 -31.8119,-32.2596 -1.5587,-6.4533 -0.975,-17.1994 1.2725,-23.4257 4.9961,-13.8407 15.807,-23.759 30.5062,-27.9872 5.5886,-1.6075 17.0877,-1.5072 23.0679,0.2013 13.6947,3.9125 24.2639,13.373 29.5,26.4055 0.8978,2.2345 1.7422,4.1726 1.8765,4.3069 0.1343,0.1343 44.5438,0.5312 98.6878,0.882 54.1441,0.3508 98.9589,0.7422 99.5885,0.8697 1.134,0.2298 1.1449,0.6909 1.1449,48.4829 0,26.538 0.1929,48.9385 0.4286,49.7789 0.3383,1.2058 1.0622,1.7353 3.4345,2.5122 14.4992,4.7483 25.5593,16.2606 29.3893,30.5908 1.3523,5.0599 1.3856,15.5811 0.065,20.6069 -3.5959,13.6868 -14.3015,25.4634 -27.4842,30.2334 -7.8803,2.8515 -15.305,3.5338 -23.086,2.1216 z" />
      <path
         style="fill:#f2f2f2;fill-opacity:1;stroke:#f2f2f2;stroke-width:1.01015258"
         d="m 562.38861,579.54186 c -21.02739,-3.09776 -42.63611,-18.35507 -52.13609,-36.81184 -2.28773,-4.44467 -5.23754,-11.33297 -6.55513,-15.30734 l -2.39561,-7.22611 -4.54568,-0.55979 c -2.50013,-0.30788 -31.86306,-0.87299 -65.25097,-1.2558 l -60.70528,-0.69602 -0.65901,-21.82265 c -0.36246,-12.00246 -0.66013,-40.29771 -0.66149,-62.8783 -0.002,-36.50406 -0.17962,-41.12363 -1.60032,-41.6688 -0.87882,-0.33723 -28.14246,-0.61315 -60.58586,-0.61315 l -58.98802,0 -1.42334,2.27285 c -0.78283,1.25006 -2.4203,5.33802 -3.63883,9.08434 -4.35341,13.38439 -16.23817,28.25534 -29.271,36.62569 -13.96909,8.97169 -26.51552,12.21615 -43.82366,11.33265 -12.838,-0.65531 -21.47811,-3.12785 -32.69337,-9.35585 -8.90023,-4.94243 -22.03053,-18.01141 -26.85156,-26.72617 -16.716096,-30.21691 -11.455644,-66.48246 13.06334,-90.05867 27.64484,-26.58188 71.74084,-26.87307 99.85644,-0.65942 10.60468,9.8873 16.7372,19.47359 21.10356,32.98883 l 3.47532,10.75717 12.9577,0.64245 c 7.12674,0.35335 34.1882,0.69427 60.13657,0.75762 l 47.17885,0.11516 0.8034,-3.78808 c 1.02009,-4.80985 0.98123,-188.04587 -0.0412,-194.3429 l -0.76099,-4.68677 -6.77335,-1.67734 c -3.72534,-0.92255 -11.06962,-3.75476 -16.32061,-6.29383 -8.06747,-3.90094 -10.88573,-5.96957 -18.18275,-13.34629 -9.89228,-10.00034 -14.1227,-16.63057 -18.59866,-29.14922 -3.00324,-8.39959 -3.16251,-9.59586 -3.12856,-23.497371 0.0321,-13.161413 0.3111,-15.466963 2.74984,-22.728433 3.95748,-11.783565 9.23324,-20.099756 18.9282,-29.836571 10.30461,-10.34911 20.34456,-16.00656 35.00623,-19.725795 11.90079,-3.018884 20.64118,-3.126012 32.38233,-0.396896 24.84522,5.775028 44.69223,22.887164 53.73187,46.327746 7.31559,18.969956 6.29946,41.41265 -2.68021,59.19662 -9.75309,19.3157 -26.16398,32.66347 -47.98208,39.02617 l -7.82868,2.28303 0,98.12339 c 0,53.96787 0.30031,110.4706 0.66737,125.56162 l 0.66738,27.43824 12.37767,0 12.37766,0 3.75563,-6.71569 c 4.68772,-8.38243 11.97995,-15.42107 20.75272,-20.03103 3.71936,-1.95446 7.0482,-4.2982 7.39744,-5.20831 0.34924,-0.91009 0.92743,-57.89577 1.28487,-126.63482 l 0.64987,-124.98009 9.68318,-0.64132 c 5.32575,-0.35271 32.86849,-0.64366 61.2061,-0.64654 l 51.52292,-0.005 2.32757,-6.0026 c 3.31439,-8.54755 13.16677,-18.98356 21.59658,-22.87589 5.86598,-2.70869 7.28957,-2.94148 17.9869,-2.94148 10.52637,0 12.16627,0.25747 17.4711,2.74308 7.48957,3.50927 17.16191,13.09393 20.37664,20.19191 7.51076,16.58347 4.20525,35.23357 -8.49582,47.93464 -19.98056,19.98058 -53.88527,14.8047 -66.85253,-10.20567 l -3.30517,-6.37477 -6.00925,-0.62809 c -3.30509,-0.34546 -26.59275,-0.6281 -51.75033,-0.6281 l -45.74108,0 -0.6865,5.49456 c -0.97036,7.76659 -0.14312,156.79223 0.87603,157.8135 0.95745,0.95944 50.43087,1.75457 53.96589,0.86734 2.3148,-0.58099 2.31519,-0.58434 2.03896,-17.90706 l -0.27629,-17.32596 -6.91309,-3.74061 c -9.53084,-5.15705 -16.16982,-11.95976 -20.64689,-21.15605 -3.47398,-7.13587 -3.68524,-8.13383 -3.6352,-17.1726 0.0412,-7.43856 0.56128,-10.90301 2.31299,-15.40693 6.57224,-16.89818 24.48224,-28.23184 42.25833,-26.74155 10.65442,0.89323 17.58434,3.99792 25.41759,11.38741 7.83559,7.3917 11.6451,14.27942 13.16705,23.80655 2.96005,18.52912 -6.18608,35.87085 -23.65922,44.85961 l -7.59343,3.90631 0,29.09686 0,29.09684 -31.16232,0 c -17.13928,0 -34.64868,0.29471 -38.9098,0.65491 l -7.74748,0.6549 0.27146,22.30886 0.27147,22.30888 7.01463,4.21767 c 9.35846,5.62693 16.14238,12.57021 20.06316,20.53443 3.03727,6.16958 3.22679,7.2084 3.22679,17.68746 0,10.42448 -0.20526,11.56623 -3.22555,17.94211 -15.52804,32.7799 -62.30351,32.40927 -77.15016,-0.61131 l -3.46695,-7.71091 -12.87945,-0.001 -12.87944,-10e-4 0.0111,26.01143 c 0.006,14.30629 0.29287,27.71606 0.63724,29.7995 l 0.62612,3.78807 54.80123,0 54.80122,0 1.17455,-4.79822 c 6.43069,-26.27062 23.94106,-46.59915 47.66105,-55.33175 6.17662,-2.27395 9.66946,-2.83728 20.20267,-3.25831 15.87258,-0.63446 24.16009,0.73188 34.74221,5.72787 16.05884,7.58162 28.36178,19.54823 35.9138,34.93198 5.45415,11.1103 7.09225,18.20556 7.1502,30.9703 0.0653,14.3871 -1.32581,20.61965 -7.34359,32.90114 -14.51569,29.62461 -44.7996,45.46296 -77.66915,40.62062 z"
         id="path3582"
         inkscape:connector-curvature="0"
         transform="translate(2159.2011,871.80079)" />
      <path
         style="fill:#ececec;fill-opacity:1;stroke:#f2f2f2;stroke-width:1.01015258"
         d="m 559.89063,579.92374 c -27.16198,-6.08557 -46.94041,-24.1762 -56.61228,-51.78126 -1.55153,-4.4283 -2.96087,-6.75835 -4.41266,-7.2954 -1.17318,-0.43399 -30.51866,-1.1609 -65.21216,-1.61537 -34.69349,-0.45447 -63.30627,-1.05348 -63.58393,-1.33113 -0.27766,-0.27766 -0.86554,-28.66999 -1.30639,-63.09407 l -0.80156,-62.58922 -60.03525,0 -60.03524,0 -3.80085,9.52283 c -10.80495,27.07124 -33.99301,45.81601 -59.92822,48.44481 -10.49401,1.06367 -25.59974,-0.1887 -32.90087,-2.7277 -24.74373,-8.60474 -42.76527,-28.19044 -48.96941,-53.21963 -2.22905,-8.9926 -2.27694,-24.92269 -0.10269,-34.1624 5.45407,-23.17773 22.44056,-42.89296 44.51732,-51.66863 19.70188,-7.83163 40.20506,-6.99781 59.6308,2.42506 19.47234,9.44548 32.79249,25.50935 39.96989,48.20298 l 2.28457,7.22342 16.24841,0.66647 c 8.93663,0.36655 35.79487,0.52527 59.68498,0.35272 l 43.43656,-0.31374 0.81447,-21.71828 c 1.17914,-31.44178 0.24867,-176.40233 -1.14304,-178.07924 -0.60404,-0.72782 -3.50463,-1.91855 -6.44576,-2.64604 -2.94113,-0.7275 -9.43862,-3.23942 -14.43888,-5.58203 -19.06967,-8.9341 -33.37441,-25.60577 -39.77608,-46.35762 -3.11497,-10.09761 -3.15832,-31.61191 -0.0838,-41.591489 8.03874,-26.092806 28.88029,-45.660138 56.0223,-52.597213 19.88294,-5.081766 44.66373,0.666452 61.69658,14.311302 13.4479,10.772982 23.78531,26.846225 27.23321,42.343927 2.58799,11.632509 1.71104,29.645303 -1.96586,40.379003 -7.94236,23.18557 -24.97383,39.63236 -49.58828,47.88596 l -9.09138,3.04848 -0.31259,102.32193 c -0.17192,56.27705 -0.008,112.43607 0.36499,124.79781 l 0.67758,22.4759 11.84884,0 11.84883,0 2.76286,-5.07629 c 4.04626,-7.4343 12.56695,-16.12983 20.15255,-20.56605 3.65687,-2.13862 7.12608,-4.46341 7.70935,-5.16622 0.71852,-0.86578 1.31383,-41.69745 1.84613,-126.62455 0.4321,-68.9407 1.0694,-125.6305 1.41624,-125.97732 0.34683,-0.34684 27.91016,-0.88546 61.25184,-1.19696 l 60.62123,-0.56636 3.14299,-6.38429 c 6.50313,-13.20974 18.67371,-22.71714 31.67085,-24.740603 8.28406,-1.289709 20.27354,0.187465 26.41453,3.254423 7.04576,3.51883 16.47262,13.40549 20.12832,21.11013 2.8688,6.04621 3.11543,7.40979 3.11543,17.22498 0,10.28565 -0.13301,10.92811 -3.79734,18.3424 -4.43813,8.97994 -11.74844,16.28149 -20.70122,20.67639 -5.34728,2.62496 -6.72385,2.85015 -17.42277,2.85015 -10.96858,0 -11.99668,-0.17997 -18.42594,-3.22554 -7.97905,-3.77973 -15.14088,-10.55581 -19.66402,-18.60488 -2.56563,-4.56562 -3.81279,-5.79353 -6.41243,-6.31346 -1.77502,-0.355 -24.75385,-0.64546 -51.06405,-0.64546 l -47.83673,0 -0.61044,2.43219 c -0.93279,3.71655 -0.0521,157.89547 0.90736,158.85595 0.46228,0.46273 12.73563,0.84134 27.27412,0.84134 l 26.43363,0 0.27629,-16.76993 0.27627,-16.76991 -7.95353,-4.62132 c -9.442,-5.48618 -15.09263,-11.56595 -20.02489,-21.54569 -3.56688,-7.21709 -3.61273,-7.46969 -3.22202,-17.74885 0.34457,-9.06479 0.80339,-11.29383 3.51077,-17.05594 12.04125,-25.62732 45.82394,-32.58442 66.67867,-13.7316 10.65328,9.63063 15.12356,20.51115 14.24075,34.6615 -0.96441,15.45841 -9.606,28.20832 -24.21936,35.73355 l -6.80253,3.503 -0.26854,29.29443 -0.26852,29.29442 -38.3858,0.57092 c -21.11219,0.31401 -38.49944,0.65493 -38.63834,0.75761 -0.13889,0.10269 -0.25253,9.92701 -0.25253,21.83184 l 0,21.64514 6.0568,3.67931 c 9.79413,5.94962 16.66873,12.90351 20.67692,20.91544 3.44708,6.89028 3.57085,7.52791 3.57085,18.39469 0,10.70762 -0.16642,11.60426 -3.41012,18.37272 -10.88286,22.70871 -37.77051,31.21745 -60.15259,19.0356 -6.93918,-3.77677 -13.29724,-10.79126 -17.69254,-19.51917 l -3.62296,-7.19423 -12.10913,0 -12.10913,0 0.0154,27.52666 c 0.008,15.13966 0.37876,28.0989 0.82276,28.7983 0.63581,1.00151 12.25991,1.21609 54.72237,1.01015 l 53.91507,-0.26149 1.37495,-5.55584 c 0.75622,-3.05571 3.60407,-10.15455 6.32854,-15.7752 8.30545,-17.13431 22.31827,-30.21399 39.89958,-37.24259 10.34034,-4.13383 27.3386,-5.54264 39.93548,-3.30984 26.72021,4.73616 49.95806,25.84036 58.19588,52.85243 1.37986,4.52458 1.82999,9.35499 1.82999,19.63764 0,15.61676 -1.25274,21.08882 -7.6521,33.42488 -10.16996,19.60467 -27.64004,33.55779 -48.43215,38.68213 -6.23151,1.53579 -26.43792,2.13847 -31.75527,0.94713 z"
         id="path3606"
         inkscape:connector-curvature="0"
         transform="translate(2159.2011,871.80079)" />
      <path
         style="fill:#ececec;fill-opacity:1;stroke:#f2f2f2;stroke-width:1.01015258"
         d="m 419.02011,616.88293 c -11.7499,-2.30327 -23.69347,-11.56663 -29.73374,-23.06127 l -3.70054,-7.04215 -48.37736,-0.30647 c -26.60755,-0.16855 -48.65793,-0.58745 -49.00083,-0.9309 -0.34291,-0.34343 -0.90865,-21.15529 -1.25721,-46.24857 l -0.63373,-45.62414 -7.93166,-4.12651 c -26.12344,-13.5909 -31.6614,-46.23847 -11.43957,-67.43895 21.55702,-22.60029 59.17794,-16.39768 72.62189,11.97327 2.92336,6.16919 3.14013,7.39558 3.13553,17.73905 -0.005,10.60573 -0.16069,11.42249 -3.42537,17.93773 -4.56228,9.10482 -11.81639,16.31052 -20.7117,20.57348 -3.91364,1.87557 -7.69676,3.41012 -8.40691,3.41012 -1.0216,0 -1.29119,6.83742 -1.29119,32.74734 0,18.01104 0.27592,33.46637 0.61315,34.34519 0.54397,1.41755 4.8694,1.59784 38.3342,1.59784 l 37.72105,0 3.05518,-6.40157 c 9.06078,-18.98514 31.06021,-28.83497 52.14163,-23.3454 7.82916,2.0387 13.15306,5.23061 19.66908,11.79248 16.56479,16.68134 16.79468,42.19463 0.53379,59.24246 -11.17134,11.712 -25.83677,16.31884 -41.91569,13.16697 z"
         id="path3608"
         inkscape:connector-curvature="0"
         transform="translate(2159.2011,871.80079)" />
      <path
         style="fill:#ececec;fill-opacity:1;stroke:#f2f2f2;stroke-width:1.01015258"
         d="m 364.42611,719.50672 0,-58.30399 26.01143,0.47303 c 22.17815,0.40332 27.15086,0.78197 33.74325,2.56939 20.60008,5.58537 32.64188,17.74891 36.70772,37.07882 1.9269,9.16094 1.93106,26.71456 0.008,35.85414 -4.1725,19.83536 -15.99701,31.98145 -36.55475,37.54888 -6.78226,1.83676 -11.55451,2.20423 -33.90471,2.61068 l -26.01142,0.47303 0,-58.30398 z m 52.02286,42.72455 c 5.8431,-1.21993 13.06801,-4.65561 17.32764,-8.23985 6.99471,-5.88566 11.43184,-19.27048 11.43184,-34.4847 0,-24.16948 -8.5898,-37.40081 -27.46598,-42.30731 -2.93376,-0.76257 -12.26628,-1.72101 -20.73894,-2.12986 l -15.40483,-0.74337 0,45.20202 0,45.20202 14.89975,-0.72222 c 8.19487,-0.39723 17.1726,-1.19675 19.95052,-1.77673 z"
         id="path3610"
         inkscape:connector-curvature="0"
         transform="translate(2159.2011,871.80079)" />
      <path
         style="fill:#ececec;fill-opacity:1;stroke:#f2f2f2;stroke-width:1.01015258"
         d="m 287.14944,777.84458 c -10.99932,-3.93922 -18.02873,-11.10522 -22.9356,-23.38125 -1.97823,-4.94915 -2.26414,-7.50673 -2.27041,-20.3094 -0.006,-12.47724 0.31089,-15.49543 2.13973,-20.37261 6.35849,-16.95686 18.58634,-25.25715 37.20842,-25.25715 18.59879,0 30.33775,8.0344 36.99522,25.32036 4.57985,11.89147 3.47549,34.54622 -2.22914,45.72823 -3.23012,6.33155 -10.63434,13.63598 -16.96261,16.73399 -4.92116,2.40916 -7.10132,2.81928 -16.28824,3.06406 -8.18768,0.21816 -11.75847,-0.1299 -15.65737,-1.52623 z m 25.23596,-13.82729 c 9.18639,-5.38358 13.0394,-15.28488 12.49767,-32.116 -0.32199,-10.0042 -0.71048,-12.08612 -3.20433,-17.17218 -3.47506,-7.08719 -8.47149,-11.37436 -15.11293,-12.96762 -11.63607,-2.79145 -22.31422,3.42463 -27.01269,15.72492 -3.25972,8.53371 -3.27628,24.63602 -0.034,33.09825 4.35754,11.37318 10.38276,15.77725 21.68375,15.8495 5.6293,0.036 7.79624,-0.43234 11.18258,-2.41687 z"
         id="path3612"
         inkscape:connector-curvature="0"
         transform="translate(2159.2011,871.80079)" />
      <path
         style="fill:#ececec;fill-opacity:1;stroke:#f2f2f2;stroke-width:1.01015258"
         d="m 552.79507,578.28077 c -23.17223,-7.70463 -38.76504,-22.71624 -48.46909,-46.66243 -4.85116,-11.97094 2.38653,-10.68585 -66.29526,-11.77107 -32.98215,-0.52114 -61.82771,-1.17128 -64.10124,-1.44474 l -4.13369,-0.49721 -0.66454,-21.3381 c -0.36549,-11.73595 -0.66572,-30.6971 -0.66718,-42.13589 -10e-4,-11.43878 -0.30101,-30.00638 -0.66567,-41.26132 l -0.66301,-20.46353 -59.55551,0.26048 -59.5555,0.26048 -3.81677,8.85709 c -5.36184,12.44261 -11.12401,20.81375 -20.21116,29.36228 -16.38723,15.41593 -36.1445,21.65526 -59.58054,18.81551 -30.53387,-3.6998 -55.39737,-26.33207 -62.70804,-57.08064 -1.60981,-6.77082 -1.59253,-25.94468 0.0296,-32.78419 8.26395,-34.84517 40.65425,-59.31903 75.81047,-57.28185 18.87443,1.09372 35.02099,8.36225 48.57877,21.86822 9.6926,9.65555 14.46993,17.32198 19.38167,31.1027 1.73618,4.87114 3.63345,9.19058 4.21615,9.59876 0.58271,0.40818 27.24508,0.74911 59.24971,0.75762 l 58.19023,0.0154 0.64398,-6.81853 c 0.85189,-9.02012 0.84662,-167.57643 -0.006,-181.51201 -0.59595,-9.73992 -0.88198,-10.94667 -2.77792,-11.71945 -1.16242,-0.4738 -6.43193,-2.53298 -11.70998,-4.57592 -27.95961,-10.82221 -45.85474,-33.41455 -48.50576,-61.23783 -0.92386,-9.696129 -0.85127,-12.41742 0.64107,-24.032498 1.53783,-11.969038 9.37196,-26.246458 20.55027,-37.452116 9.13904,-9.161398 18.44062,-14.874148 31.35503,-19.257313 17.51921,-5.946035 37.14888,-4.240892 54.99619,4.777274 16.19225,8.181871 29.06333,22.318292 36.23097,39.792793 3.84141,9.365229 4.687,14.186353 4.6951,26.769042 0.009,13.917048 -1.82972,22.725748 -6.9311,33.205378 -9.22858,18.95799 -24.15915,31.57251 -46.81729,39.55493 l -7.82868,2.75803 -0.0918,72.34746 c -0.15435,121.60662 0.14483,175.335 0.981,176.17117 0.43934,0.43934 5.75237,0.66902 11.80674,0.5104 l 11.00794,-0.2884 2.39889,-4.35295 c 3.58788,-6.51047 12.42414,-15.54993 20.63971,-21.11438 l 7.30071,-4.9448 0.73915,-21.15943 c 0.40654,-11.63769 1.08961,-68.28426 1.51794,-125.88128 0.42833,-57.59702 1.10821,-105.05129 1.51086,-105.45393 0.40265,-0.40264 27.22098,-1.09488 59.59629,-1.5383 32.37532,-0.44341 59.63493,-0.83249 60.5769,-0.86462 1.06611,-0.0364 3.1182,-2.73311 5.43563,-7.14318 4.26149,-8.10963 12.77335,-16.62721 20.02016,-20.03361 10.45185,-4.912955 24.0828,-5.336256 35.40646,-1.09953 7.46232,2.79201 18.19455,13.20145 22.34965,21.67743 2.75008,5.60987 2.95869,6.85446 2.95869,17.65216 0,11.21035 -0.11824,11.84331 -3.37965,18.09288 -4.43114,8.49099 -11.83382,16.1919 -19.62839,20.41915 -6.18663,3.3552 -6.48677,3.4093 -18.9133,3.4093 -11.74503,0 -13.02367,-0.19493 -18.30799,-2.79106 -7.6405,-3.75369 -14.12285,-9.64903 -19.13966,-17.40641 -2.28627,-3.53521 -4.86331,-6.69875 -5.72676,-7.03009 -0.86345,-0.33134 -23.72804,-0.8909 -50.8102,-1.24349 l -49.24029,-0.64106 -0.50975,5.46469 c -0.62066,6.654 0.18567,151.01187 0.86137,154.20964 l 0.48026,2.27284 26.24472,0 26.24472,0 0.0112,-6.81853 c 0.006,-3.75019 0.26598,-11.13693 0.57734,-16.41497 l 0.5661,-9.59645 -7.7426,-4.54569 c -9.61895,-5.6473 -15.41336,-11.7457 -20.20971,-21.26997 l -3.71356,-7.37416 0.40196,-11.18429 c 0.34658,-9.64366 0.78456,-11.97633 3.17951,-16.93428 8.09863,-16.76556 27.00788,-26.93542 44.90219,-24.14954 13.86361,2.15837 27.35165,12.30236 33.33422,25.06977 2.45542,5.24011 2.73647,6.98118 2.73647,16.9516 0,10.37977 -0.21055,11.55611 -3.19664,17.8591 -4.23191,8.93262 -10.24489,15.25349 -19.78204,20.79496 l -7.83095,4.55009 0,29.15809 0,29.15809 -13.38452,0.008 c -18.27053,0.0104 -61.58012,1.0804 -63.13453,1.55984 -0.95725,0.29525 -1.26212,5.46738 -1.2603,21.38183 l 0.002,20.99237 6.63876,4.04061 c 8.49244,5.16883 16.5242,13.58361 20.51927,21.49779 2.97006,5.88367 3.14176,6.85562 3.14176,17.78561 0,13.23178 -1.33353,17.55046 -8.24865,26.71339 -11.00898,14.5875 -32.6278,20.23156 -50.84527,13.27424 -7.91989,-3.02463 -17.86014,-12.83172 -22.77595,-22.47086 l -3.48765,-6.83994 -11.61675,0.27346 -11.61676,0.27345 -0.0437,19.69798 c -0.0241,10.83388 0.12437,23.45209 0.32973,28.04047 l 0.3734,8.34249 54.15261,-0.26127 54.15262,-0.26128 1.17482,-4.54569 c 5.62114,-21.74981 21.69288,-41.57448 41.38123,-51.0442 19.6227,-9.43813 48.27042,-8.46967 67.06631,2.26725 18.32628,10.46866 33.03484,29.73096 37.00311,48.45919 1.85915,8.77427 1.87086,24.13131 0.0251,32.84074 -4.0354,19.04084 -19.68414,39.66856 -36.99425,48.76476 -13.12472,6.89684 -16.99521,7.82949 -34.26812,8.25731 -14.30829,0.35439 -16.26873,0.18453 -22.75292,-1.97144 l -2e-5,0 z"
         id="path3614"
         inkscape:connector-curvature="0"
         transform="translate(2159.2011,871.80079)" />
      <path
         style="fill:#ececec;fill-opacity:1;stroke:#f2f2f2;stroke-width:1.01015258"
         d="m 286.5219,777.97941 c -10.66998,-3.6808 -19.48439,-13.47457 -23.23225,-25.81357 -1.82898,-6.02153 -2.07229,-8.94214 -1.74321,-20.92493 0.37676,-13.71904 0.4389,-14.04081 4.16994,-21.59005 7.18495,-14.53775 17.88848,-21.13399 34.56504,-21.30131 15.05529,-0.15105 24.72596,4.08906 32.46348,14.23363 5.65133,7.40938 7.73699,14.4494 8.22499,27.76285 0.87901,23.98098 -5.36761,37.34014 -21.49557,45.97092 -4.50283,2.40966 -6.311,2.7338 -16.66751,2.98785 -8.6135,0.2113 -12.82361,-0.13135 -16.28491,-1.32539 z m 26.15552,-14.74584 c 8.11189,-4.90213 11.42386,-13.30666 11.48346,-29.14063 0.0477,-12.67699 -1.09946,-17.56634 -5.48619,-23.38258 -8.44838,-11.20145 -24.80525,-11.98183 -33.57825,-1.602 -5.82225,6.88861 -7.03936,11.22611 -7.02787,25.04557 0.009,11.08439 0.30162,13.27373 2.3936,17.92176 2.55301,5.67234 8.71646,12.01463 12.47018,12.83199 8.20432,1.78649 14.96748,1.21306 19.74507,-1.67411 z"
         id="path3616"
         inkscape:connector-curvature="0"
         transform="translate(2159.2011,871.80079)" />
      <path
         style="fill:#ececec;fill-opacity:1;stroke:#f2f2f2;stroke-width:1.01015258"
         d="m 223.00476,716.98133 0,-60.60915 7.57614,0 7.57614,0 0,60.60915 0,60.60916 -7.57614,0 -7.57614,0 0,-60.60916 z"
         id="path3618"
         inkscape:connector-curvature="0"
         transform="translate(2159.2011,871.80079)" />
      <path
         style="fill:#ececec;fill-opacity:1;stroke:#f2f2f2;stroke-width:1.01015258"
         d="m 139.16209,778.49301 c -5.57741,-1.60748 -11.30768,-6.0984 -14.62471,-11.46167 -2.84244,-4.59592 -3.05296,-5.60506 -3.05296,-14.63516 0,-12.21862 2.4997,-17.98066 9.99137,-23.03106 7.74827,-5.22338 13.36488,-6.4763 31.67743,-7.06642 l 16.41498,-0.52898 -0.0222,-2.64673 c -0.0387,-4.61324 -3.63341,-10.94957 -7.76192,-13.68169 -9.6167,-6.36403 -25.83546,-5.65179 -42.97606,1.88728 -1.58875,0.6988 -1.76777,0.0654 -1.76777,-6.25446 l 0,-7.03199 7.32361,-2.16861 c 25.30239,-7.49234 46.31444,-3.10121 54.84934,11.4625 4.54373,7.75329 5.47055,15.55694 5.48973,46.22273 l 0.0175,28.03174 -7.57614,0 -7.57614,0 0,-5.75519 0,-5.75519 -4.17152,4.21322 c -6.60967,6.67574 -11.83391,8.70718 -23.1026,8.98342 -5.27805,0.12938 -11.18744,-0.2233 -13.13199,-0.78374 z m 26.0862,-13.9596 c 8.04613,-4.13906 13.19865,-12.96514 14.09616,-24.14626 l 0.52315,-6.51734 -15.04945,0.48538 c -12.18068,0.39286 -15.91597,0.87338 -19.59514,2.52079 -6.80566,3.04734 -8.42918,5.40559 -8.90898,12.94072 -0.60324,9.47362 3.06697,14.48879 12.44451,17.00484 3.54318,0.95066 12.65027,-0.31305 16.48975,-2.28813 z"
         id="path3620"
         inkscape:connector-curvature="0"
         transform="translate(2159.2011,871.80079)" />
    </g>
  </g>
</svg>
