<?xml version="1.0" encoding="UTF-8" standalone="no"?>
<!-- Created with Inkscape (http://www.inkscape.org/) -->
<svg
   xmlns:dc="http://purl.org/dc/elements/1.1/"
   xmlns:cc="http://creativecommons.org/ns#"
   xmlns:rdf="http://www.w3.org/1999/02/22-rdf-syntax-ns#"
   xmlns:svg="http://www.w3.org/2000/svg"
   xmlns="http://www.w3.org/2000/svg"
   xmlns:sodipodi="http://sodipodi.sourceforge.net/DTD/sodipodi-0.dtd"
   xmlns:inkscape="http://www.inkscape.org/namespaces/inkscape"
   width="1394.3669"
   height="1583.3572"
   id="svg2"
   sodipodi:version="0.32"
   inkscape:version="0.46"
   sodipodi:docname="glassware_boiling_distilling_flask_round_with_sidearm.svg"
   inkscape:output_extension="org.inkscape.output.svg.inkscape"
   version="1.0">
  <defs
     id="defs4">
    <inkscape:perspective
       sodipodi:type="inkscape:persp3d"
       inkscape:vp_x="0 : 526.18109 : 1"
       inkscape:vp_y="0 : 1000 : 0"
       inkscape:vp_z="744.09448 : 526.18109 : 1"
       inkscape:persp3d-origin="372.04724 : 350.78739 : 1"
       id="perspective10" />
  </defs>
  <sodipodi:namedview
     id="base"
     pagecolor="#ffffff"
     bordercolor="#666666"
     borderopacity="1.0"
     gridtolerance="10000"
     guidetolerance="10"
     objecttolerance="10"
     inkscape:pageopacity="0.0"
     inkscape:pageshadow="2"
     inkscape:zoom="0.24748737"
     inkscape:cx="466.89797"
     inkscape:cy="651.10025"
     inkscape:document-units="px"
     inkscape:current-layer="layer1"
     showgrid="false"
     showborder="false"
     inkscape:window-width="1355"
     inkscape:window-height="722"
     inkscape:window-x="4"
     inkscape:window-y="24" />
  <metadata
     id="metadata7">
    <rdf:RDF>
      <cc:Work
         rdf:about="">
        <dc:format>image/svg+xml</dc:format>
        <dc:type
           rdf:resource="http://purl.org/dc/dcmitype/StillImage" />
      </cc:Work>
    </rdf:RDF>
  </metadata>
  <g
     inkscape:label="Layer 1"
     inkscape:groupmode="layer"
     id="layer1"
     transform="translate(3446.8572,344.13791)">
    <g
       id="g3166">
      <path
         sodipodi:nodetypes="ccccccc"
         id="rect2391"
         d="M -3198.2859,-317.20932 C -3179.4702,-282.34416 -2912.8538,-292.50034 -2902.5716,-317.92361 L -2913.2859,-239.35218 L -2919.0002,-160.78075 C -2940.6129,-124.01024 -3124.5306,-120.17164 -3181.143,-160.06646 L -3184.0002,-239.35218 L -3198.2859,-317.20932 z"
         style="fill:#474747;fill-opacity:1;stroke:#000000;stroke-width:1;stroke-linecap:round;stroke-linejoin:miter;stroke-miterlimit:4;stroke-opacity:1" />
      <path
         transform="translate(10.999992,-333.78068)"
         d="M -2914.2856,15.49991 A 147.14285,25.357143 0 1 1 -3208.5713,15.49991 A 147.14285,25.357143 0 1 1 -2914.2856,15.49991 z"
         sodipodi:ry="25.357143"
         sodipodi:rx="147.14285"
         sodipodi:cy="15.49991"
         sodipodi:cx="-3061.4285"
         id="path2394"
         style="opacity:1;fill:#000000;fill-opacity:1;stroke:#000000;stroke-width:1;stroke-linecap:round;stroke-linejoin:miter;stroke-miterlimit:4;stroke-dasharray:none;stroke-opacity:1"
         sodipodi:type="arc" />
    </g>
    <path
       style="fill:#cdcdcd;fill-opacity:1;stroke:none;stroke-width:8;stroke-linecap:round;stroke-linejoin:miter;stroke-miterlimit:4;stroke-opacity:1"
       d="M -2739.9346,600.73478 C -2504.5691,926.83627 -2803.6066,1259.3543 -3048.0312,1234.1005 C -3264.313,1250.2443 -3604.6252,974.31344 -3356.1277,596.69417 C -3126.021,598.26195 -2969.369,596.45389 -2739.9346,600.73478 z"
       id="path3158"
       sodipodi:nodetypes="cccc" />
    <path
       style="fill:none;fill-opacity:1;stroke:#000000;stroke-width:8;stroke-linecap:round;stroke-linejoin:miter;stroke-miterlimit:4;stroke-opacity:1"
       d="M -2657.1429,842.36216 C -2657.1429,1059.2193 -2833.1429,1235.2193 -3050,1235.2193 C -3266.8572,1235.2193 -3442.8572,1059.2193 -3442.8572,842.36216 C -3432.7062,671.00564 -3356.032,552.38517 -3202.8706,480.39341 C -3154.6964,446.26859 -3186.1298,-209.71151 -3186.8323,-235.87311 C -3085.7482,-208.97319 -3004.3761,-209.01478 -2911.708,-236.63017 C -2912.4127,-187.10507 -2915.2365,-152.19858 -2915.9241,-102.68778 C -2908.7406,-68.078279 -2148.3962,527.01181 -2062.3725,599.63234 C -2081.8467,578.3797 -2091.3334,603.71311 -2072.0846,625.30396 C -2096.4072,607.25194 -2914.3179,-69.951519 -2920.111,-14.647415 C -2925.9004,158.85264 -2936.6062,341.79272 -2897.1295,480.39341 C -2742.9051,556.89814 -2664.004,672.79555 -2657.1429,842.36216 z"
       id="path2383"
       sodipodi:nodetypes="cscccccccccc" />
    <path
       style="fill:#ffffff;fill-opacity:1;stroke:#000000;stroke-width:4;stroke-linecap:round;stroke-linejoin:miter;stroke-miterlimit:4;stroke-dasharray:none;stroke-opacity:1"
       d="M -3017.8173,582.80514 C -3034.5219,599.80228 -3015.008,627.50348 -3033.3125,644.70833 C -3051.617,661.91317 -3080.3069,661.06725 -3097.3523,642.82011 C -3114.3978,624.57297 -3091.5902,599.90748 -3109.7143,577.52406"
       id="path3184"
       sodipodi:nodetypes="csss" />
    <path
       sodipodi:type="arc"
       style="fill:#ffffff;fill-opacity:1;stroke:#000000;stroke-width:4;stroke-linecap:round;stroke-linejoin:miter;stroke-miterlimit:4;stroke-dasharray:none;stroke-opacity:1"
       id="path3187"
       sodipodi:cx="275.71429"
       sodipodi:cy="833.79077"
       sodipodi:rx="41.42857"
       sodipodi:ry="41.42857"
       d="M 317.14286,833.79077 A 41.42857,41.42857 0 1 1 234.28572,833.79077 A 41.42857,41.42857 0 1 1 317.14286,833.79077 z"
       transform="translate(-3254.2858,194.28572)" />
    <path
       sodipodi:type="arc"
       style="fill:#ffffff;fill-opacity:1;stroke:#000000;stroke-width:4;stroke-linecap:round;stroke-linejoin:miter;stroke-miterlimit:4;stroke-dasharray:none;stroke-opacity:1"
       id="path3189"
       sodipodi:cx="275.71429"
       sodipodi:cy="833.79077"
       sodipodi:rx="41.42857"
       sodipodi:ry="41.42857"
       d="M 317.14286,833.79077 A 41.42857,41.42857 0 1 1 234.28572,833.79077 A 41.42857,41.42857 0 1 1 317.14286,833.79077 z"
       transform="matrix(0.6381579,0,0,0.6381579,-3194.5207,353.12917)" />
    <path
       sodipodi:type="arc"
       style="fill:#ffffff;fill-opacity:1;stroke:#000000;stroke-width:4;stroke-linecap:round;stroke-linejoin:miter;stroke-miterlimit:4;stroke-dasharray:none;stroke-opacity:1"
       id="path3191"
       sodipodi:cx="275.71429"
       sodipodi:cy="833.79077"
       sodipodi:rx="41.42857"
       sodipodi:ry="41.42857"
       d="M 317.14286,833.79077 A 41.42857,41.42857 0 1 1 234.28572,833.79077 A 41.42857,41.42857 0 1 1 317.14286,833.79077 z"
       transform="matrix(0.5723684,0,0,0.5723684,-3282.0959,550.84097)" />
    <path
       sodipodi:type="arc"
       style="fill:#ffffff;fill-opacity:1;stroke:#000000;stroke-width:4;stroke-linecap:round;stroke-linejoin:miter;stroke-miterlimit:4;stroke-dasharray:none;stroke-opacity:1"
       id="path3193"
       sodipodi:cx="275.71429"
       sodipodi:cy="833.79077"
       sodipodi:rx="41.42857"
       sodipodi:ry="41.42857"
       d="M 317.14286,833.79077 A 41.42857,41.42857 0 1 1 234.28572,833.79077 A 41.42857,41.42857 0 1 1 317.14286,833.79077 z"
       transform="translate(-3475.7143,292.85712)" />
    <path
       sodipodi:type="arc"
       style="fill:#ffffff;fill-opacity:1;stroke:#000000;stroke-width:4;stroke-linecap:round;stroke-linejoin:miter;stroke-miterlimit:4;stroke-dasharray:none;stroke-opacity:1"
       id="path3195"
       sodipodi:cx="275.71429"
       sodipodi:cy="833.79077"
       sodipodi:rx="41.42857"
       sodipodi:ry="41.42857"
       d="M 317.14286,833.79077 A 41.42857,41.42857 0 1 1 234.28572,833.79077 A 41.42857,41.42857 0 1 1 317.14286,833.79077 z"
       transform="translate(-3367.1429,-38.571447)" />
    <path
       sodipodi:type="arc"
       style="fill:#ffffff;fill-opacity:1;stroke:#000000;stroke-width:4;stroke-linecap:round;stroke-linejoin:miter;stroke-miterlimit:4;stroke-dasharray:none;stroke-opacity:1"
       id="path3197"
       sodipodi:cx="275.71429"
       sodipodi:cy="833.79077"
       sodipodi:rx="41.42857"
       sodipodi:ry="41.42857"
       d="M 317.14286,833.79077 A 41.42857,41.42857 0 1 1 234.28572,833.79077 A 41.42857,41.42857 0 1 1 317.14286,833.79077 z"
       transform="matrix(0.6381579,0,0,0.6381579,-3183.0922,158.84346)" />
    <path
       sodipodi:type="arc"
       style="fill:#ffffff;fill-opacity:1;stroke:#000000;stroke-width:4;stroke-linecap:round;stroke-linejoin:miter;stroke-miterlimit:4;stroke-dasharray:none;stroke-opacity:1"
       id="path3199"
       sodipodi:cx="275.71429"
       sodipodi:cy="833.79077"
       sodipodi:rx="41.42857"
       sodipodi:ry="41.42857"
       d="M 317.14286,833.79077 A 41.42857,41.42857 0 1 1 234.28572,833.79077 A 41.42857,41.42857 0 1 1 317.14286,833.79077 z"
       transform="matrix(0.6381579,0,0,0.6381579,-3078.8064,628.84345)" />
    <path
       sodipodi:type="arc"
       style="opacity:1;fill:none;fill-opacity:1;stroke:#000000;stroke-width:11.24914551;stroke-linecap:round;stroke-linejoin:miter;stroke-miterlimit:4;stroke-dasharray:none;stroke-opacity:1"
       id="path3181"
       sodipodi:cx="-2046.4286"
       sodipodi:cy="941.21417"
       sodipodi:rx="20"
       sodipodi:ry="21.071428"
       d="M -2026.4286,941.21417 A 20,21.071428 0 1 1 -2066.4286,941.21417 A 20,21.071428 0 1 1 -2026.4286,941.21417 z"
       transform="matrix(0.4767141,-0.2780114,0.4101781,0.8217119,-1479.8612,-732.04661)" />
  </g>
</svg>
