<?xml version="1.0" encoding="UTF-8" standalone="no"?>
<!-- Created with Inkscape (http://www.inkscape.org/) -->

<svg
   xmlns:dc="http://purl.org/dc/elements/1.1/"
   xmlns:cc="http://creativecommons.org/ns#"
   xmlns:rdf="http://www.w3.org/1999/02/22-rdf-syntax-ns#"
   xmlns:svg="http://www.w3.org/2000/svg"
   xmlns="http://www.w3.org/2000/svg"
   xmlns:sodipodi="http://sodipodi.sourceforge.net/DTD/sodipodi-0.dtd"
   xmlns:inkscape="http://www.inkscape.org/namespaces/inkscape"
   width="209mm"
   height="227mm"
   viewBox="0 0 740.55118 804.33064"
   id="svg2"
   version="1.1"
   inkscape:version="0.91 r13725"
   sodipodi:docname="valodata_logo.svg">
  <defs
     id="defs4" />
  <sodipodi:namedview
     id="base"
     pagecolor="#ffffff"
     bordercolor="#666666"
     borderopacity="1.0"
     inkscape:pageopacity="0.0"
     inkscape:pageshadow="2"
     inkscape:zoom="0.98994949"
     inkscape:cx="925.61638"
     inkscape:cy="408.37201"
     inkscape:document-units="px"
     inkscape:current-layer="g3413"
     showgrid="false"
     inkscape:window-width="3726"
     inkscape:window-height="2118"
     inkscape:window-x="114"
     inkscape:window-y="42"
     inkscape:window-maximized="1"
     inkscape:showpageshadow="false"
     showborder="false" />
  <metadata
     id="metadata7">
    <rdf:RDF>
      <cc:Work
         rdf:about="">
        <dc:format>image/svg+xml</dc:format>
        <dc:type
           rdf:resource="http://purl.org/dc/dcmitype/StillImage" />
        <dc:title></dc:title>
      </cc:Work>
    </rdf:RDF>
  </metadata>
  <g
     inkscape:label="Layer 1"
     inkscape:groupmode="layer"
     id="layer1"
     transform="translate(0,-248.03162)">
    <g
       id="g3413"
       transform="translate(-2159.2011,-623.7692)">
      <path
         style="fill:#9ec226"
         d="m 2450.2918,1227.7072 c -5.308,-0.9634 -7.6381,-1.7413 -12.5131,-4.1777 -10.4551,-5.225 -18.0405,-13.9302 -21.8096,-25.029 -1.2277,-3.6149 -1.6107,-5.9851 -1.8191,-11.2545 -0.3368,-8.5181 0.7311,-13.7259 4.3241,-21.0869 2.2502,-4.61 3.4424,-6.2222 7.8312,-10.5897 6.2429,-6.2127 10.6869,-8.9527 19.3441,-11.9267 0.9409,-0.3233 1.0018,-2.7083 1.0018,-39.225 0,-34.9262 -0.092,-38.9162 -0.9055,-39.2283 -1.3723,-0.5267 -121.1967,-0.3986 -122.0301,0.1304 -0.5619,0.3566 -0.6908,3.8674 -0.5724,15.5895 l 0.1528,15.1292 12.4573,0.1543 12.4574,0.1543 1.5667,-2.6759 c 8.7515,-14.9458 26.3713,-21.8064 42.3065,-16.4728 8.6089,2.8814 16.782,9.8809 20.4035,17.4737 2.8592,5.9943 3.4586,8.6029 3.4706,15.1043 0.012,6.4715 -0.9739,10.5795 -3.8455,16.0239 -2.272,4.3073 -8.447,10.8603 -12.5829,13.3528 -17.7962,10.7255 -40.9314,4.0524 -50.2705,-14.4998 l -2.5904,-5.1459 -22.276,-0.2862 -22.276,-0.2862 -0.3004,-26.9034 c -0.1652,-14.7969 -0.3584,-26.9679 -0.4293,-27.0466 -0.071,-0.079 -7.559,-0.1431 -16.6402,-0.1431 -18.5598,0 -17.3394,-0.2878 -19.2086,4.5298 -2.3381,6.026 -9.1249,14.3745 -14.9121,18.3433 -3.79,2.5992 -9.1263,5.0798 -13.8795,6.4522 -5.8066,1.6765 -17.3341,1.7868 -23.0347,0.2204 -15.9724,-4.389 -28.0347,-16.621 -31.8119,-32.2596 -1.5587,-6.4533 -0.975,-17.1994 1.2725,-23.4257 4.9961,-13.8407 15.807,-23.759 30.5062,-27.9872 5.5886,-1.6075 17.0877,-1.5072 23.0679,0.2013 13.6947,3.9125 24.2639,13.373 29.5,26.4055 0.8978,2.2345 1.7422,4.1726 1.8765,4.3069 0.1343,0.1343 44.5438,0.5312 98.6878,0.882 54.1441,0.3508 98.9589,0.7422 99.5885,0.8697 1.134,0.2298 1.1449,0.6909 1.1449,48.4829 0,26.538 0.1929,48.9385 0.4286,49.7789 0.3383,1.2058 1.0622,1.7353 3.4345,2.5122 14.4992,4.7483 25.5593,16.2606 29.3893,30.5908 1.3523,5.0599 1.3856,15.5811 0.065,20.6069 -3.5959,13.6868 -14.3015,25.4634 -27.4842,30.2334 -7.8803,2.8515 -15.305,3.5338 -23.086,2.1216 z"
         id="path3421"
         inkscape:connector-curvature="0"
         sodipodi:nodetypes="sssssscsccscccssssssscccscsssssssssssscsscssss" />
      <path
         style="fill:#ef9101"
         d="m 2578.82,1488.4347 c -13.9926,-2.7884 -26.4778,-13.1584 -31.9662,-26.5506 l -1.5512,-3.7852 -49.1826,-0.2862 -49.1826,-0.2862 -0.2862,-46.017 c -0.2497,-40.1421 -0.3959,-46.0711 -1.1449,-46.4401 -0.4722,-0.2328 -3.5632,-1.7304 -6.8689,-3.3281 -11.6216,-5.6168 -19.5077,-15.0121 -22.9977,-27.3987 -1.6496,-5.8547 -1.7502,-15.8519 -0.215,-21.3506 4.4287,-15.8628 16.7191,-27.7187 32.6807,-31.5256 4.2334,-1.0097 6.2774,-1.1737 11.7113,-0.9396 7.9673,0.3432 11.7705,1.3091 18.8681,4.7918 4.5785,2.2466 6.2182,3.4636 10.6,7.8673 5.8061,5.8353 8.7325,10.4095 11.0233,17.2302 1.3849,4.1238 1.5389,5.4052 1.5478,12.8794 0.011,9.2039 -0.6136,12.1655 -3.9831,18.8899 -5.374,10.7245 -14.4728,18.4752 -26.1785,22.2996 l -3.8638,1.2624 0,34.2369 c 0,30.6916 0.094,34.2729 0.9054,34.5844 1.3043,0.5005 75.3928,0.4123 76.1198,-0.091 0.3344,-0.2313 1.202,-1.903 1.928,-3.7149 6.0577,-15.1177 19.4034,-25.2498 36.0744,-27.3878 8.8781,-1.1385 20.0583,1.209 27.9043,5.8592 4.5077,2.6717 11.1428,9.0687 14.2428,13.7318 12.1707,18.3073 8.0054,43.115 -9.5449,56.8472 -10.2723,8.0375 -23.7068,11.1985 -36.6403,8.6211 z"
         id="path3419"
         inkscape:connector-curvature="0"
         sodipodi:nodetypes="sscccssssssssssssscsccssssss" />
      <path
         style="fill:#1d5c9b"
         d="m 2720.5919,1450.8243 c -7.3356,-1.3232 -12.129,-2.9342 -19.4621,-6.5408 -8.2199,-4.0429 -13.2086,-7.6474 -19.8023,-14.3076 -9.7493,-9.8477 -16.5408,-22.479 -19.4671,-36.2059 -0.389,-1.8247 -0.9856,-3.499 -1.3258,-3.7207 -0.3402,-0.2218 -29.8546,-0.532 -65.5876,-0.6895 l -64.9689,-0.2862 -0.1457,-63.196 c -0.1139,-49.4202 -0.301,-63.384 -0.8586,-64.0576 -0.6305,-0.7617 -7.7677,-0.8146 -61.6738,-0.4575 -33.5286,0.2222 -61.1612,0.6042 -61.406,0.849 -0.2447,0.2447 -1.0652,2.7439 -1.823,5.5536 -7.4383,27.5743 -30.167,48.3811 -58.1464,53.2295 -8.2623,1.4318 -22.4093,0.9267 -30.0293,-1.0722 -16.9729,-4.4522 -30.7494,-13.4801 -40.6594,-26.6447 -22.2473,-29.5537 -19.3934,-70.4327 6.7224,-96.2908 7.3731,-7.3003 15.1571,-12.3913 24.6641,-16.131 8.229,-3.2371 14.2545,-4.453 23.9393,-4.8308 9.6939,-0.3781 16.8848,0.5692 25.3752,3.343 25.3131,8.2696 44.3469,29.7465 49.2447,55.5653 0.491,2.5888 1.1578,4.9721 1.4816,5.296 0.6867,0.687 119.6621,1.4163 121.7407,0.7463 l 1.288,-0.4151 0,-101.2613 c 0,-80.3369 -0.1479,-101.3739 -0.7156,-101.806 -0.3935,-0.2996 -2.905,-0.996 -5.581,-1.5475 -29.9321,-6.1691 -52.4278,-29.212 -58.1675,-59.58248 -1.2805,-6.77572 -1.2757,-18.8327 0.01,-25.94319 2.6885,-14.86319 9.9072,-28.60547 20.6505,-39.31198 10.1069,-10.07233 23.1079,-17.12606 36.9214,-20.03181 2.2519,-0.47371 4.8656,-0.8613 5.8081,-0.8613 0.9424,0 1.5755,-0.2234 1.4067,-0.49644 -0.1687,-0.27304 1.5548,-0.63014 3.8301,-0.79355 4.8539,-0.34863 13.0915,0.12135 12.718,0.72559 -0.1424,0.23048 1.3067,0.59618 3.2202,0.81268 8.4566,0.95675 20.6551,5.7028 29.2597,11.38401 6.2415,4.12092 14.9961,12.61542 19.2785,18.70565 6.019,8.55985 10.8995,20.20465 12.7151,30.33793 1.1034,6.15851 0.9614,20.27353 -0.2666,26.48838 -3.8093,19.27902 -15.5275,36.92851 -31.5079,47.45591 -8.5505,5.6327 -16.6239,8.9842 -27.5423,11.4335 l -3.4345,0.7705 0,126.2172 0,126.2172 13.9446,0 13.9446,0 1.2922,-3.5686 c 2.0596,-5.6881 4.8117,-9.8168 10.029,-15.0454 5.2124,-5.2237 9.9107,-8.1253 17.0633,-10.5381 l 3.8298,-1.2919 0.2862,-127.0228 0.2862,-127.0228 61.0372,-0.1457 c 47.8871,-0.1143 61.1588,-0.2993 61.6014,-0.8586 0.3103,-0.3921 1.1172,-2.399 1.7929,-4.45971 1.92,-5.85434 5.0617,-10.70885 10.363,-16.01282 3.8287,-3.83058 5.9183,-5.39855 9.74,-7.3086 7.345,-3.671 13.026,-4.89636 21.1395,-4.55974 7.6914,0.3191 13.4866,1.93131 19.5018,5.42536 4.5612,2.64947 12.2054,10.19543 14.8057,14.61542 5.3335,9.06579 7.1329,20.87459 4.7181,30.96429 -5.3314,22.2762 -26.9156,36.1118 -49.1662,31.5158 -13.9448,-2.8804 -24.992,-12.0853 -30.4308,-25.356 l -1.5513,-3.7852 -51.9823,-0.1462 c -37.932,-0.1066 -52.1926,0.028 -52.7601,0.4994 -1.0803,0.8966 -1.1701,163.5945 -0.091,164.6737 0.5159,0.5158 7.7804,0.6869 29.173,0.6869 27.5775,0 28.5049,-0.035 29.0786,-1.1072 0.9111,-1.7024 0.7979,-35.0492 -0.1229,-36.212 -0.3936,-0.4969 -2.1323,-1.3481 -3.8638,-1.8914 -12.5852,-3.9491 -22.6849,-14.5623 -26.9825,-28.3544 -1.8688,-5.9976 -1.8737,-16.0178 -0.011,-22.5644 4.0514,-14.2383 14.156,-24.4453 28.7309,-29.022 3.6555,-1.1479 5.3894,-1.3335 12.0005,-1.285 6.8097,0.05 8.2715,0.2412 12.3069,1.6104 7.2346,2.4547 11.4915,5.1231 16.8862,10.5852 8.3523,8.4567 12.0206,17.3822 12.0206,29.2477 0,12.9082 -5.0684,23.9458 -14.7998,32.2299 -3.3471,2.8493 -12.5458,7.8391 -14.4514,7.8391 -0.5977,0 -1.6018,0.5151 -2.2315,1.1448 -1.1139,1.114 -1.1448,1.908 -1.1448,29.4793 l 0,28.3344 -38.2905,0 c -34.3878,0 -38.3259,0.092 -38.6379,0.9055 -0.1911,0.498 -0.3474,11.1386 -0.3474,23.6457 0,17.3216 0.1704,22.9589 0.7155,23.6574 0.3935,0.5044 2.6966,1.7305 5.118,2.7247 11.6295,4.7749 20.1547,14.1113 24.3153,26.6288 1.3194,3.9696 1.5282,5.5702 1.568,12.0207 0.05,8.1537 -0.9425,12.6463 -4.233,19.1557 -10.0919,19.9637 -34.3885,28.558 -54.8717,19.4093 -10.3652,-4.6295 -19.1349,-14.3166 -22.4759,-24.8271 -0.7005,-2.2038 -1.5233,-4.3335 -1.8285,-4.7327 -0.426,-0.5574 -3.6264,-0.6903 -13.7847,-0.5725 l -13.2299,0.1535 -0.1481,30.4068 c -0.1225,25.1515 -0.013,30.5191 0.6345,31.0563 0.5745,0.4768 15.5296,0.6107 56.2349,0.5036 l 55.4523,-0.146 1.2049,-5.8214 c 1.525,-7.3677 3.2231,-12.426 6.1166,-18.22 9.9921,-20.0088 26.59,-33.3661 48.5083,-39.0375 6.7496,-1.7464 19.6364,-2.4017 26.9513,-1.3704 31.0216,4.3735 55.765,27.7003 61.9877,58.439 4.7301,23.365 -2.92,48.5313 -19.9316,65.569 -6.1999,6.2095 -11.3833,9.9631 -18.9212,13.7019 -7.4724,3.7063 -12.9828,5.5559 -20.2935,6.8117 -6.6416,1.1409 -19.1619,1.1387 -25.4996,-0.01 z"
         id="path3415"
         inkscape:connector-curvature="0"
         sodipodi:nodetypes="cssssscssssssssssssssscsssssssscssssssssscccccssscccsccsssssssscsssssssssssssssssscsssssssssssscssscsssssssscc" />
      <flowRoot
         xml:space="preserve"
         id="flowRoot3431"
         style="font-style:normal;font-weight:normal;font-size:40px;line-height:125%;font-family:sans-serif;letter-spacing:0px;word-spacing:0px;fill:#000000;fill-opacity:1;stroke:none;stroke-width:1px;stroke-linecap:butt;stroke-linejoin:miter;stroke-opacity:1"
         transform="translate(2159.2011,623.7692)"><flowRegion
           id="flowRegion3433"><rect
             id="rect3435"
             width="3232.488"
             height="1757.6654"
             x="-1434.4166"
             y="664.46362" /></flowRegion><flowPara
           id="flowPara3437"></flowPara></flowRoot>      <text
         xml:space="preserve"
         style="font-style:normal;font-weight:normal;font-size:158.51525879px;line-height:125%;font-family:sans-serif;letter-spacing:0px;word-spacing:0px;fill:#1d5c9b;fill-opacity:1;stroke:none;stroke-width:1px;stroke-linecap:butt;stroke-linejoin:miter;stroke-opacity:1"
         x="2174.7639"
         y="1649.1233"
         id="text3439"
         sodipodi:linespacing="125%"><tspan
           sodipodi:role="line"
           id="tspan3441"
           x="2174.7639"
           y="1649.1233">ValoData</tspan></text>
    </g>
  </g>
</svg>
